<svg width="30" height="30" viewBox="0 0 30 30" fill="none" xmlns="http://www.w3.org/2000/svg">
<path d="M25.3125 0H4.6875C2.09867 0 0 2.09867 0 4.6875V25.3125C0 27.9013 2.09867 30 4.6875 30H25.3125C27.9013 30 30 27.9013 30 25.3125V4.6875C30 2.09867 27.9013 0 25.3125 0Z" fill="#FF0000"/>
<path d="M22.125 11.3438C21.9375 10.6875 21.4688 10.2188 20.8125 10.0313C19.6875 9.75 14.9062 9.75 14.9062 9.75C14.9062 9.75 10.2188 9.75 9.00001 10.0313C8.34376 10.2188 7.875 10.6875 7.6875 11.3438C7.5 12.5625 7.5 15 7.5 15C7.5 15 7.5 17.4375 7.78125 18.6562C7.96875 19.3125 8.4375 19.7812 9.09375 19.9688C10.2187 20.25 15 20.25 15 20.25C15 20.25 19.6875 20.25 20.9062 19.9688C21.5625 19.7812 22.0313 19.3125 22.2188 18.6562C22.5 17.4375 22.5 15 22.5 15C22.5 15 22.5 12.5625 22.125 11.3438ZM13.5 17.25V12.75L17.4375 15L13.5 17.25Z" fill="white"/>
</svg>
