<svg width="30" height="30" viewBox="0 0 30 30" fill="none" xmlns="http://www.w3.org/2000/svg">
<rect width="30" height="30" rx="5" fill="white"/>
<g clip-path="url(#clip0_64_1057)">
<path d="M4.81444 22.9769L5.87287 24.7651C6.09281 25.1417 6.40894 25.4375 6.78009 25.6526C7.84322 24.3327 8.58309 23.3197 9.00009 22.6139C9.42319 21.8976 9.94322 20.7771 10.5602 19.2525C8.89744 19.0384 7.63744 18.9313 6.78019 18.9313C5.95734 18.9313 4.69734 19.0384 3 19.2525C3 19.6693 3.10997 20.0861 3.32991 20.4626L4.81444 22.9769Z" fill="#0066DA"/>
<path d="M23.22 25.6526C23.5913 25.4375 23.9074 25.1417 24.1273 24.7652L24.5671 24.0257L26.6703 20.4626C26.8862 20.0942 26.9999 19.6771 27.0001 19.2525C25.293 19.0384 24.0353 18.9313 23.227 18.9313C22.3583 18.9313 21.1005 19.0384 19.4537 19.2525C20.0634 20.7854 20.5766 21.9059 20.9933 22.6139C21.4136 23.3281 22.1558 24.341 23.22 25.6526Z" fill="#EA4335"/>
<path d="M15.0001 11.7228C16.2301 10.2698 17.0778 9.14929 17.543 8.36147C17.9178 7.72707 18.3302 6.71411 18.7802 5.3227C18.409 5.10757 17.9829 5 17.543 5H12.4571C12.0172 5 11.5912 5.12105 11.22 5.3227C11.7924 6.91852 12.2782 8.05426 12.6772 8.72984C13.1182 9.47649 13.8925 10.4741 15.0001 11.7228Z" fill="#00832D"/>
<path d="M19.44 19.2525H10.5602L6.78015 25.6526C7.15121 25.8678 7.57731 25.9753 8.01718 25.9753H21.9829C22.4228 25.9753 22.849 25.8543 23.2201 25.6525L19.44 19.2525Z" fill="#2684FC"/>
<path d="M15.0001 11.7228L11.2201 5.3228C10.8488 5.53793 10.5327 5.83367 10.3128 6.21021L3.32991 18.0424C3.11401 18.4107 3.00029 18.8279 3 19.2525H10.5602L15.0001 11.7228Z" fill="#00AC47"/>
<path d="M23.179 12.1262L19.6875 6.21011C19.4676 5.83358 19.1514 5.53784 18.7802 5.3227L15.0002 11.7228L19.4401 19.2525H26.9866C26.9866 18.8356 26.8766 18.4189 26.6567 18.0424L23.179 12.1262Z" fill="#FFBA00"/>
</g>
<defs>
<clipPath id="clip0_64_1057">
<rect width="24" height="21" fill="white" transform="translate(3 5)"/>
</clipPath>
</defs>
</svg>
