<svg width="29" height="19" viewBox="0 0 29 19" fill="none" xmlns="http://www.w3.org/2000/svg">
<path d="M10.6477 0.963685C10.5341 0.722096 10.3541 0.517822 10.1288 0.374737C9.90342 0.231653 9.64198 0.15567 9.37504 0.15567C9.10809 0.15567 8.84665 0.231653 8.62129 0.374737C8.39592 0.517822 8.21594 0.722096 8.10238 0.963685L0.602379 16.9012C0.45224 17.2373 0.439884 17.6189 0.567963 17.964C0.696043 18.3091 0.954345 18.5903 1.28741 18.747C1.62047 18.9038 2.00173 18.9238 2.34933 18.8026C2.69693 18.6814 2.98314 18.4287 3.14652 18.0988L4.97347 14.2188H13.7766L15.6024 18.0988C15.7612 18.4364 16.0476 18.697 16.3986 18.8234C16.7495 18.9497 17.1363 18.9315 17.4739 18.7727C17.8114 18.6138 18.072 18.3275 18.1984 17.9765C18.3247 17.6255 18.3065 17.2387 18.1477 16.9012L10.6477 0.963685ZM6.29769 11.4063L9.37504 4.86486L12.4536 11.4063H6.29769ZM23.4375 5.78126C21.8145 5.78126 20.5348 6.23361 19.6348 7.12658C19.4933 7.25408 19.3791 7.409 19.2993 7.58194C19.2194 7.75489 19.1756 7.94226 19.1703 8.13268C19.1651 8.32309 19.1986 8.51259 19.2688 8.68966C19.339 8.86674 19.4444 9.02771 19.5787 9.1628C19.713 9.2979 19.8734 9.40429 20.05 9.47554C20.2267 9.54679 20.416 9.58141 20.6064 9.57729C20.7969 9.57318 20.9845 9.53041 21.1579 9.45159C21.3313 9.37277 21.4869 9.25953 21.6153 9.11876C21.9668 8.7672 22.5832 8.58908 23.4375 8.58908C24.5321 8.58908 25.452 9.19376 25.7075 10.007C24.9928 9.69023 24.2193 9.52809 23.4375 9.53126C20.5946 9.53126 18.2813 11.6336 18.2813 14.2188C18.2813 16.8039 20.5946 18.9063 23.4375 18.9063C24.3354 18.9086 25.2202 18.6922 26.0157 18.2758C26.1826 18.5274 26.4261 18.7187 26.7101 18.8212C26.9941 18.9237 27.3036 18.9321 27.5927 18.8451C27.8819 18.7581 28.1354 18.5803 28.3156 18.338C28.4959 18.0958 28.5935 17.802 28.5938 17.5V10.4688C28.5938 7.88361 26.2805 5.78126 23.4375 5.78126ZM23.4375 16.0938C22.1485 16.0938 21.0938 15.2524 21.0938 14.2188C21.0938 13.1852 22.1485 12.3438 23.4375 12.3438C24.7266 12.3438 25.7813 13.1852 25.7813 14.2188C25.7813 15.2524 24.7266 16.0938 23.4375 16.0938Z" fill="#3CB2E4"/>
</svg>
