<svg width="26" height="26" viewBox="0 0 26 26" fill="none" xmlns="http://www.w3.org/2000/svg">
<path d="M13 0.5C19.9037 0.5 25.5 6.09625 25.5 13C25.5 19.9037 19.9037 25.5 13 25.5C6.09625 25.5 0.5 19.9037 0.5 13C0.5 6.09625 6.09625 0.5 13 0.5ZM18.005 14.0975C17.5737 13.4413 17.2625 12.9688 16.0775 13.1562C13.84 13.5112 13.5912 13.9025 13.485 14.5475L13.455 14.7425L13.4237 14.95C13.3025 15.8038 13.3062 16.1263 13.6987 16.5375C15.28 18.1975 16.2275 19.3937 16.515 20.0938C16.655 20.435 17.015 21.4688 16.7675 22.4913C18.2848 21.8869 19.6353 20.9281 20.7063 19.695C20.8438 19.2275 20.9437 18.645 20.9437 17.94V17.8088C20.9437 16.6562 20.9437 16.13 20.1287 15.6637C19.8668 15.5152 19.5977 15.3796 19.3225 15.2575C18.8638 15.0487 18.56 14.9125 18.15 14.3125C18.1005 14.2416 18.0522 14.1699 18.005 14.0975ZM13 2.79125C10.1038 2.79125 7.4875 3.99875 5.63 5.93625C5.85125 6.09 6.04375 6.30625 6.17625 6.60375C6.43125 7.175 6.43125 7.76375 6.43125 8.285C6.43125 8.695 6.43125 9.085 6.5625 9.36625C6.7425 9.75125 7.52 9.91625 8.20625 10.0588C8.4525 10.1112 8.705 10.1637 8.935 10.2275C9.5675 10.4025 10.0575 10.9712 10.4487 11.4275C10.6112 11.6162 10.8525 11.895 10.9737 11.965C11.0363 11.92 11.2375 11.7013 11.3362 11.3425C11.4137 11.0675 11.3912 10.825 11.28 10.6925C10.58 9.8675 10.6187 8.28 10.835 7.69375C11.175 6.77 12.2375 6.83875 13.015 6.88875C13.305 6.9075 13.5775 6.92625 13.7825 6.9C14.56 6.8025 14.8 5.61875 14.9688 5.3875C15.3337 4.8875 16.4512 4.13375 17.1437 3.66875C15.8394 3.08874 14.4275 2.78976 13 2.79125Z" fill="#3CB2E4"/>
</svg>
