<svg width="28" height="28" viewBox="0 0 28 28" fill="none" xmlns="http://www.w3.org/2000/svg">
<path d="M0 7C0 6.07174 0.368749 5.1815 1.02513 4.52513C1.6815 3.86875 2.57174 3.5 3.5 3.5H24.5C25.4283 3.5 26.3185 3.86875 26.9749 4.52513C27.6313 5.1815 28 6.07174 28 7V21C28 21.9283 27.6313 22.8185 26.9749 23.4749C26.3185 24.1313 25.4283 24.5 24.5 24.5H3.5C2.57174 24.5 1.6815 24.1313 1.02513 23.4749C0.368749 22.8185 0 21.9283 0 21V7ZM15.75 9.625C15.75 9.85706 15.8422 10.0796 16.0063 10.2437C16.1704 10.4078 16.3929 10.5 16.625 10.5H23.625C23.8571 10.5 24.0796 10.4078 24.2437 10.2437C24.4078 10.0796 24.5 9.85706 24.5 9.625C24.5 9.39294 24.4078 9.17038 24.2437 9.00628C24.0796 8.84219 23.8571 8.75 23.625 8.75H16.625C16.3929 8.75 16.1704 8.84219 16.0063 9.00628C15.8422 9.17038 15.75 9.39294 15.75 9.625ZM15.75 14C15.75 14.2321 15.8422 14.4546 16.0063 14.6187C16.1704 14.7828 16.3929 14.875 16.625 14.875H23.625C23.8571 14.875 24.0796 14.7828 24.2437 14.6187C24.4078 14.4546 24.5 14.2321 24.5 14C24.5 13.7679 24.4078 13.5454 24.2437 13.3813C24.0796 13.2172 23.8571 13.125 23.625 13.125H16.625C16.3929 13.125 16.1704 13.2172 16.0063 13.3813C15.8422 13.5454 15.75 13.7679 15.75 14ZM17.5 18.375C17.5 18.6071 17.5922 18.8296 17.7563 18.9937C17.9204 19.1578 18.1429 19.25 18.375 19.25H23.625C23.8571 19.25 24.0796 19.1578 24.2437 18.9937C24.4078 18.8296 24.5 18.6071 24.5 18.375C24.5 18.1429 24.4078 17.9204 24.2437 17.7563C24.0796 17.5922 23.8571 17.5 23.625 17.5H18.375C18.1429 17.5 17.9204 17.5922 17.7563 17.7563C17.5922 17.9204 17.5 18.1429 17.5 18.375ZM15.75 21.875C15.75 18.4923 12.6175 15.75 8.75 15.75C5.0995 15.75 2.1 18.1965 1.778 21.3167C1.85209 21.7193 2.06496 22.0832 2.37958 22.3451C2.6942 22.6069 3.09066 22.7502 3.5 22.75H15.68C15.7267 22.4642 15.75 22.1725 15.75 21.875ZM12.25 10.5C12.25 9.57174 11.8813 8.6815 11.2249 8.02513C10.5685 7.36875 9.67826 7 8.75 7C7.82174 7 6.9315 7.36875 6.27513 8.02513C5.61875 8.6815 5.25 9.57174 5.25 10.5C5.25 11.4283 5.61875 12.3185 6.27513 12.9749C6.9315 13.6313 7.82174 14 8.75 14C9.67826 14 10.5685 13.6313 11.2249 12.9749C11.8813 12.3185 12.25 11.4283 12.25 10.5Z" fill="#3CB2E4"/>
</svg>
