<svg width="30" height="30" viewBox="0 0 30 30" fill="none" xmlns="http://www.w3.org/2000/svg">
<path d="M4 13.1842C4 10.8733 5.87334 9 8.18421 9H22.1316C24.4425 9 26.3158 10.8733 26.3158 13.1842V24.3421C26.3158 26.653 24.4425 28.5263 22.1316 28.5263H8.18421C5.87334 28.5263 4 26.653 4 24.3421V13.1842Z" fill="#3CB2E4"/>
<path fill-rule="evenodd" clip-rule="evenodd" d="M8.74211 15.3461C9.08874 14.884 9.74441 14.7903 10.2066 15.1369L13.275 17.4382C14.3908 18.2751 15.925 18.2751 17.0408 17.4382L20.1092 15.1369C20.5714 14.7903 21.2271 14.884 21.5737 15.3461C21.9203 15.8083 21.8267 16.464 21.3645 16.8106L18.2961 19.1119C16.4364 20.5067 13.8794 20.5067 12.0197 19.1119L8.95132 16.8106C8.48914 16.464 8.39548 15.8083 8.74211 15.3461Z" fill="white"/>
</svg>
