<svg width="30" height="31" viewBox="0 0 30 31" fill="none" xmlns="http://www.w3.org/2000/svg">
<path fill-rule="evenodd" clip-rule="evenodd" d="M15 3C21.9037 3 27.5 8.59625 27.5 15.5C27.5 22.4037 21.9037 28 15 28C8.09625 28 2.5 22.4037 2.5 15.5C2.5 8.59625 8.09625 3 15 3ZM15.625 16.75H7.875C7.54348 16.75 7.22554 16.8817 6.99112 17.1161C6.7567 17.3505 6.625 17.6685 6.625 18C6.625 18.3315 6.7567 18.6495 6.99112 18.8839C7.22554 19.1183 7.54348 19.25 7.875 19.25H8.5175L8.15875 19.8888C8.07848 20.0321 8.02722 20.1898 8.0079 20.3529C7.98858 20.516 8.00158 20.6813 8.04615 20.8394C8.09072 20.9975 8.166 21.1453 8.26767 21.2743C8.36935 21.4033 8.49544 21.511 8.63875 21.5912C8.78205 21.6715 8.93977 21.7228 9.10288 21.7421C9.266 21.7614 9.43132 21.7484 9.58941 21.7038C9.7475 21.6593 9.89527 21.584 10.0243 21.4823C10.1533 21.3806 10.261 21.2546 10.3412 21.1112L11.3825 19.25H15.625C15.9565 19.25 16.2745 19.1183 16.5089 18.8839C16.7433 18.6495 16.875 18.3315 16.875 18C16.875 17.6685 16.7433 17.3505 16.5089 17.1161C16.2745 16.8817 15.9565 16.75 15.625 16.75ZM17.9912 13.015C17.8368 12.7342 17.5804 12.5234 17.275 12.4262C16.9696 12.329 16.6386 12.3529 16.3503 12.4928C16.0619 12.6327 15.8383 12.878 15.7257 13.178C15.6131 13.4781 15.62 13.8099 15.745 14.105L15.81 14.2362L19.66 21.1112C19.8159 21.3892 20.0721 21.5971 20.3763 21.6925C20.6804 21.7878 21.0094 21.7634 21.2962 21.6242C21.5829 21.485 21.8056 21.2415 21.9187 20.9436C22.0319 20.6456 22.027 20.3157 21.905 20.0212L21.84 19.8888L21.4825 19.2513H22.125C22.4455 19.2538 22.7548 19.1331 22.9889 18.9141C23.223 18.6951 23.364 18.3945 23.3827 18.0745C23.4015 17.7545 23.2966 17.4395 23.0898 17.1946C22.8829 16.9498 22.5899 16.7937 22.2712 16.7587L22.125 16.75H20.0825L17.9912 13.015ZM14.8413 7.39C14.6868 7.10918 14.4304 6.89841 14.125 6.80122C13.8196 6.70404 13.4886 6.72786 13.2002 6.86777C12.9119 7.00769 12.6883 7.253 12.5757 7.55303C12.4631 7.85307 12.47 8.18491 12.595 8.48L12.6587 8.61125L13.5675 10.2325L11.3088 14.265C11.1516 14.5434 11.1071 14.8715 11.1844 15.1817C11.2617 15.492 11.455 15.7608 11.7244 15.9329C11.9939 16.105 12.319 16.1673 12.633 16.107C12.947 16.0467 13.226 15.8684 13.4125 15.6087L13.4913 15.4862L17.3413 8.61125C17.5005 8.33273 17.5466 8.00363 17.47 7.69208C17.3933 7.38053 17.1998 7.11037 16.9295 6.93755C16.6592 6.76472 16.3327 6.70246 16.0178 6.76365C15.7028 6.82483 15.4234 7.00479 15.2375 7.26625L15.16 7.38875L15 7.675L14.8413 7.39Z" fill="#3CB2E4"/>
</svg>
