<svg width="30" height="30" viewBox="0 0 30 30" fill="none" xmlns="http://www.w3.org/2000/svg">
<path fill-rule="evenodd" clip-rule="evenodd" d="M4.99994 11.25C7.94619 8.55571 10.6934 6.875 14.9999 6.875C19.3065 6.875 22.0537 8.55571 24.9999 11.25C25.382 11.5994 27.1487 10.5972 27.4981 10.2151C27.8475 9.83298 27.821 9.23998 27.4389 8.89057C24.1606 5.89262 19.7929 4.0625 14.9999 4.0625C10.2069 4.0625 5.83924 5.89262 2.56094 8.89057C2.17885 9.23998 2.15236 9.83298 2.50177 10.2151C2.85119 10.5972 4.61785 11.5994 4.99994 11.25ZM8.12494 15.625C9.97962 13.8407 12.2241 12.5 14.9999 12.5C17.7758 12.5 20.0203 13.8407 21.8749 15.625C22.2481 15.984 23.1152 15.4148 23.4741 15.0417C23.8331 14.6685 23.8216 14.075 23.4485 13.7161C21.2586 11.6093 18.2797 10.3125 14.9999 10.3125C11.7202 10.3125 8.74133 11.6093 6.55138 13.7161C6.17825 14.075 6.16677 14.6685 6.52573 15.0417C6.8847 15.4148 7.75181 15.984 8.12494 15.625ZM11.9329 19.8358C12.6791 18.9777 13.7759 18.4375 14.9999 18.4375C16.224 18.4375 17.3207 18.9777 18.067 19.8358C18.4067 20.2265 18.9989 20.2678 19.3896 19.9281C19.7803 19.5883 20.3397 18.8282 19.9999 18.4375C18.9128 17.1873 16.7893 16.25 14.9999 16.25C13.2105 16.25 11.0871 17.1873 9.99994 18.4375C9.66019 18.8282 10.2196 19.5883 10.6103 19.9281C11.001 20.2678 11.5932 20.2265 11.9329 19.8358ZM14.9999 26.25C16.3807 26.25 17.4999 25.1307 17.4999 23.75C17.4999 22.3693 16.3807 21.25 14.9999 21.25C13.6192 21.25 12.4999 22.3693 12.4999 23.75C12.4999 25.1307 13.6192 26.25 14.9999 26.25Z" fill="#3CB2E4"/>
</svg>
