<svg width="30" height="30" viewBox="0 0 30 30" fill="none" xmlns="http://www.w3.org/2000/svg">
<path d="M25.3125 0H4.6875C2.09867 0 0 2.09867 0 4.6875V25.3125C0 27.9013 2.09867 30 4.6875 30H25.3125C27.9013 30 30 27.9013 30 25.3125V4.6875C30 2.09867 27.9013 0 25.3125 0Z" fill="#0061FF"/>
<path d="M15 11.0273L11.25 13.4145L15 15.8018L11.25 18.1891L7.5 15.8018L11.25 13.4145L7.5 11.0273L11.25 8.64L15 11.0273ZM11.2401 18.9848L14.9901 16.5976L18.7401 18.9848L14.9901 21.3721L11.2401 18.9848ZM15 15.8018L18.75 13.4145L15 11.0273L18.75 8.64L22.5 11.0273L18.75 13.4145L22.5 15.8018L18.75 18.1891L15 15.8018Z" fill="white"/>
</svg>
