<svg width="31" height="30" viewBox="0 0 31 30" fill="none" xmlns="http://www.w3.org/2000/svg">
<path d="M25.8125 0H5.1875C2.59867 0 0.5 2.09867 0.5 4.6875V25.3125C0.5 27.9013 2.59867 30 5.1875 30H25.8125C28.4013 30 30.5 27.9013 30.5 25.3125V4.6875C30.5 2.09867 28.4013 0 25.8125 0Z" fill="#1877F2"/>
<path d="M23 15C23 10.875 19.625 7.5 15.5 7.5C11.375 7.5 8 10.875 8 15C8 18.75 10.7187 21.8438 14.2812 22.4062V17.1562H12.4062V15H14.2812V13.3125C14.2812 11.4375 15.4063 10.4063 17.0938 10.4063C17.9375 10.4063 18.7812 10.5938 18.7812 10.5938V12.4688H17.8438C16.9062 12.4688 16.625 13.0312 16.625 13.5938V15H18.6875L18.3125 17.1562H16.5312V22.5C20.2812 21.9375 23 18.75 23 15Z" fill="white"/>
</svg>
