<svg width="41" height="51" viewBox="0 0 41 51" fill="none" xmlns="http://www.w3.org/2000/svg">
<g clip-path="url(#clip0_78_2546)">
<path fill-rule="evenodd" clip-rule="evenodd" d="M11.335 11.8526L21.989 5.3148C23.1658 4.59266 23.5344 3.05326 22.8123 1.87645C22.0901 0.699644 20.5507 0.331064 19.3739 1.05321L8.71991 7.59098C7.5431 8.31312 7.17452 9.85252 7.89667 11.0293C8.61881 12.2061 10.1582 12.5747 11.335 11.8526ZM27.8267 24.5028L29.2655 14.1909C29.3834 12.4823 28.6568 10.8775 27.3071 9.8656L23.4923 6.59218L11.793 13.7714L12.9838 18.655C13.2747 20.3167 14.3764 21.6913 15.9531 22.36L25.7985 25.7474C25.9149 25.7968 26.0343 25.8286 26.154 25.8444L20.9981 17.4423C20.0233 17.6054 19.0026 17.1779 18.4539 16.2836C17.7317 15.1068 18.1003 13.5674 19.2771 12.8453C20.4539 12.1231 21.9933 12.4917 22.7155 13.6685C23.2642 14.5628 23.1832 15.6664 22.5962 16.4617L27.7521 24.8637C27.7923 24.7498 27.818 24.629 27.8267 24.5028Z" fill="#989898"/>
</g>
<path d="M5.07227 47.1641C2.30371 47.1641 0.553711 45.209 0.553711 42.0645C0.553711 38.9404 2.31738 36.9717 5.07227 36.9717C7.30762 36.9717 8.99609 38.3457 9.25586 40.4033H7.73828C7.46484 39.1387 6.41211 38.3115 5.07227 38.3115C3.28125 38.3115 2.11914 39.7812 2.11914 42.0645C2.11914 44.3682 3.26758 45.8242 5.0791 45.8242C6.45312 45.8242 7.43066 45.1201 7.73828 43.9307H9.2627C8.88672 45.9678 7.3418 47.1641 5.07227 47.1641ZM10.4658 47V39.8086H11.874V41.0322H11.9082C12.1475 40.1914 12.79 39.6924 13.6377 39.6924C13.8496 39.6924 14.0342 39.7266 14.1436 39.7471V41.1211C14.0273 41.0732 13.7676 41.0391 13.4805 41.0391C12.5303 41.0391 11.9424 41.6748 11.9424 42.6934V47H10.4658ZM17.7529 40.8682C16.7207 40.8682 15.9961 41.6543 15.9209 42.7412H19.5166C19.4824 41.6406 18.7852 40.8682 17.7529 40.8682ZM19.5098 44.8877H20.9111C20.7061 46.2002 19.4619 47.1367 17.8145 47.1367C15.7021 47.1367 14.4238 45.708 14.4238 43.4385C14.4238 41.1826 15.7227 39.6787 17.7529 39.6787C19.749 39.6787 20.9932 41.0869 20.9932 43.2676V43.7734H15.9141V43.8623C15.9141 45.1133 16.666 45.9404 17.8486 45.9404C18.6895 45.9404 19.3115 45.5166 19.5098 44.8877ZM24.6572 45.9541C25.6895 45.9541 26.4961 45.2432 26.4961 44.3066V43.7393L24.7256 43.8486C23.8438 43.9102 23.3447 44.2998 23.3447 44.915C23.3447 45.5439 23.8643 45.9541 24.6572 45.9541ZM24.2471 47.123C22.8389 47.123 21.8545 46.248 21.8545 44.9561C21.8545 43.6982 22.8184 42.9258 24.5273 42.8301L26.4961 42.7139V42.1602C26.4961 41.3604 25.9561 40.8818 25.0537 40.8818C24.1992 40.8818 23.666 41.292 23.5361 41.9346H22.1416C22.2236 40.6357 23.3311 39.6787 25.1084 39.6787C26.8516 39.6787 27.9658 40.6016 27.9658 42.0439V47H26.5508V45.8174H26.5166C26.0996 46.6172 25.1904 47.123 24.2471 47.123ZM29.832 38.1064H31.3154V39.8086H32.6826V40.9775H31.3154V44.9424C31.3154 45.5645 31.5889 45.8447 32.1904 45.8447C32.3408 45.8447 32.5801 45.8311 32.6758 45.8105V46.9795C32.5117 47.0205 32.1836 47.0479 31.8555 47.0479C30.3994 47.0479 29.832 46.4941 29.832 45.1064V40.9775H28.7861V39.8086H29.832V38.1064ZM36.7295 40.8682C35.6973 40.8682 34.9727 41.6543 34.8975 42.7412H38.4932C38.459 41.6406 37.7617 40.8682 36.7295 40.8682ZM38.4863 44.8877H39.8877C39.6826 46.2002 38.4385 47.1367 36.791 47.1367C34.6787 47.1367 33.4004 45.708 33.4004 43.4385C33.4004 41.1826 34.6992 39.6787 36.7295 39.6787C38.7256 39.6787 39.9697 41.0869 39.9697 43.2676V43.7734H34.8906V43.8623C34.8906 45.1133 35.6426 45.9404 36.8252 45.9404C37.666 45.9404 38.2881 45.5166 38.4863 44.8877Z" fill="#989898"/>
<defs>
<clipPath id="clip0_78_2546">
<rect width="30" height="30" fill="white" transform="translate(5.5)"/>
</clipPath>
</defs>
</svg>
