<svg width="21" height="21" viewBox="0 0 21 21" fill="none" xmlns="http://www.w3.org/2000/svg">
<path d="M10.709 20.9102C9.34831 20.9102 8.06576 20.6497 6.86133 20.1289C5.66341 19.6081 4.60547 18.8887 3.6875 17.9707C2.76953 17.0527 2.05013 15.9948 1.5293 14.7969C1.00846 13.5924 0.748047 12.3099 0.748047 10.9492C0.748047 9.58854 1.00846 8.30924 1.5293 7.11133C2.05013 5.9069 2.76628 4.8457 3.67773 3.92773C4.5957 3.00977 5.65365 2.29036 6.85156 1.76953C8.05599 1.2487 9.33854 0.988281 10.6992 0.988281C12.0599 0.988281 13.3424 1.2487 14.5469 1.76953C15.7513 2.29036 16.8125 3.00977 17.7305 3.92773C18.6484 4.8457 19.3678 5.9069 19.8887 7.11133C20.4095 8.30924 20.6699 9.58854 20.6699 10.9492C20.6699 12.3099 20.4095 13.5924 19.8887 14.7969C19.3678 15.9948 18.6484 17.0527 17.7305 17.9707C16.8125 18.8887 15.7513 19.6081 14.5469 20.1289C13.349 20.6497 12.0697 20.9102 10.709 20.9102ZM7.71094 15.5684C7.88021 15.5684 8.01693 15.5358 8.12109 15.4707C8.22526 15.3991 8.34245 15.2754 8.47266 15.0996L10.6504 12.0039H10.6895L12.8574 15.0996C12.9876 15.2754 13.1048 15.3991 13.209 15.4707C13.3197 15.5358 13.4531 15.5684 13.6094 15.5684C13.8438 15.5684 14.0358 15.5 14.1855 15.3633C14.3353 15.2266 14.4102 15.0475 14.4102 14.8262C14.4102 14.6374 14.3451 14.4616 14.2148 14.2988L11.6953 10.8516L14.2344 7.39453C14.3646 7.22526 14.4297 7.04622 14.4297 6.85742C14.4297 6.6556 14.3548 6.48633 14.2051 6.34961C14.0618 6.21289 13.8828 6.14453 13.668 6.14453C13.5117 6.14453 13.375 6.18034 13.2578 6.25195C13.1471 6.31706 13.0397 6.43424 12.9355 6.60352L10.8262 9.69922H10.7773L8.63867 6.59375C8.52148 6.43099 8.4043 6.31706 8.28711 6.25195C8.17643 6.18034 8.03646 6.14453 7.86719 6.14453C7.65234 6.14453 7.4668 6.2194 7.31055 6.36914C7.1543 6.51237 7.07617 6.68815 7.07617 6.89648C7.07617 7.0918 7.14779 7.28711 7.29102 7.48242L9.70312 10.8027L7.14453 14.3379C7.02734 14.5072 6.96875 14.6829 6.96875 14.8652C6.96875 15.0605 7.04036 15.2266 7.18359 15.3633C7.32682 15.5 7.5026 15.5684 7.71094 15.5684Z" fill="#EF4444"/>
</svg>
