<svg width="49" height="48" viewBox="0 0 49 48" fill="none" xmlns="http://www.w3.org/2000/svg">
<g filter="url(#filter0_b_59_369)">
<rect x="0.5" width="48" height="48" rx="24" fill="#525252" fill-opacity="0.4"/>
<path d="M27.104 14.76C25.5633 14.5846 24.0077 14.5846 22.467 14.76L20.872 14.942C20.7576 14.9552 20.6512 15.0074 20.5708 15.09C20.4905 15.1725 20.4411 15.2803 20.431 15.395L20.308 16.777C20.1018 19.1001 20.1018 21.4369 20.308 23.76L20.431 25.142C20.442 25.2665 20.4992 25.3824 20.5914 25.4668C20.6836 25.5512 20.804 25.598 20.929 25.598H23V33C23.0002 33.1035 23.0325 33.2043 23.0924 33.2887C23.1523 33.3731 23.2369 33.4367 23.3346 33.471C23.4322 33.5052 23.5381 33.5083 23.6376 33.4798C23.737 33.4514 23.8252 33.3927 23.89 33.312L24.281 32.822C26.6106 29.9057 28.4657 26.6403 29.778 23.146L29.968 22.639C29.9964 22.5634 30.0061 22.4819 29.9962 22.4017C29.9863 22.3215 29.9571 22.2449 29.9111 22.1784C29.8651 22.1119 29.8036 22.0576 29.732 22.0201C29.6605 21.9826 29.5808 21.963 29.5 21.963H26.787L29.112 15.611C29.1381 15.5399 29.1477 15.4639 29.14 15.3885C29.1324 15.3132 29.1078 15.2406 29.068 15.1762C29.0283 15.1117 28.9744 15.0572 28.9105 15.0166C28.8465 14.9761 28.7742 14.9506 28.699 14.942L27.104 14.76Z" fill="white"/>
</g>
<defs>
<filter id="filter0_b_59_369" x="-49.5" y="-50" width="148" height="148" filterUnits="userSpaceOnUse" color-interpolation-filters="sRGB">
<feFlood flood-opacity="0" result="BackgroundImageFix"/>
<feGaussianBlur in="BackgroundImageFix" stdDeviation="25"/>
<feComposite in2="SourceAlpha" operator="in" result="effect1_backgroundBlur_59_369"/>
<feBlend mode="normal" in="SourceGraphic" in2="effect1_backgroundBlur_59_369" result="shape"/>
</filter>
</defs>
</svg>
