<svg width="25" height="24" viewBox="0 0 25 24" fill="none" xmlns="http://www.w3.org/2000/svg">
<path opacity="0.4" d="M5.75 0.75H10.75C13.5114 0.75 15.75 2.98858 15.75 5.75V18.25C15.75 21.0114 13.5114 23.25 10.75 23.25H5.75C2.98858 23.25 0.75 21.0114 0.75 18.25V5.75C0.75 2.98858 2.98858 0.75 5.75 0.75Z" fill="#3CB2E4"/>
<path fill-rule="evenodd" clip-rule="evenodd" d="M18.8371 7.58709C19.2032 7.22097 19.7968 7.22097 20.1629 7.58709L23.9129 11.3371C24.279 11.7032 24.279 12.2968 23.9129 12.6629L20.1629 16.4129C19.7968 16.779 19.2032 16.779 18.8371 16.4129C18.471 16.0468 18.471 15.4532 18.8371 15.0871L20.9867 12.9375H8.25C7.73223 12.9375 7.3125 12.5178 7.3125 12C7.3125 11.4822 7.73223 11.0625 8.25 11.0625H20.9867L18.8371 8.91291C18.471 8.5468 18.471 7.9532 18.8371 7.58709Z" fill="#65818E"/>
</svg>
