<svg width="26" height="27" viewBox="0 0 26 27" fill="none" xmlns="http://www.w3.org/2000/svg">
<path opacity="0.4" d="M10.1555 26.5H15.8443C18.4675 26.5 20.6447 24.4728 20.8316 21.8562L21.7355 6.70255C19.0776 5.7701 16.1185 5.25 12.9999 5.25C9.88132 5.25 6.9223 5.7701 4.2644 6.70255L5.16824 21.8562C5.35513 24.4728 7.53234 26.5 10.1555 26.5Z" fill="#3CB2E4"/>
<path fill-rule="evenodd" clip-rule="evenodd" d="M16.4375 4.51956V4C16.4375 2.10152 14.8984 0.5625 13 0.5625C11.1015 0.5625 9.56247 2.10152 9.56247 4V4.51956C6.58125 4.88237 3.79613 5.70997 1.33928 6.90724C0.873834 7.13406 0.680393 7.69525 0.907213 8.16069C1.13403 8.62613 1.69522 8.81958 2.16066 8.59276C5.27521 7.07497 8.99465 6.1875 13 6.1875C17.0053 6.1875 20.7247 7.07497 23.8393 8.59276C24.3047 8.81958 24.8659 8.62613 25.0927 8.16069C25.3195 7.69525 25.1261 7.13406 24.6607 6.90724C22.2038 5.70997 19.4187 4.88237 16.4375 4.51956Z" fill="#65818E"/>
<path fill-rule="evenodd" clip-rule="evenodd" d="M10.5 10.5625C11.0178 10.5625 11.4375 10.9822 11.4375 11.5V19C11.4375 19.5178 11.0178 19.9375 10.5 19.9375C9.98223 19.9375 9.5625 19.5178 9.5625 19V11.5C9.5625 10.9822 9.98223 10.5625 10.5 10.5625Z" fill="#65818E"/>
<path fill-rule="evenodd" clip-rule="evenodd" d="M15.5 10.5625C16.0178 10.5625 16.4375 10.9822 16.4375 11.5V19C16.4375 19.5178 16.0178 19.9375 15.5 19.9375C14.9822 19.9375 14.5625 19.5178 14.5625 19V11.5C14.5625 10.9822 14.9822 10.5625 15.5 10.5625Z" fill="#65818E"/>
</svg>
