<svg width="24" height="25" viewBox="0 0 24 25" fill="none" xmlns="http://www.w3.org/2000/svg">
<path opacity="0.4" d="M5.75 9.25L18.25 9.25C21.0114 9.25 23.25 11.4886 23.25 14.25L23.25 19.25C23.25 22.0114 21.0114 24.25 18.25 24.25L5.75 24.25C2.98858 24.25 0.75 22.0114 0.75 19.25L0.75 14.25C0.75 11.4886 2.98858 9.25 5.75 9.25Z" fill="#3CB2E4"/>
<path fill-rule="evenodd" clip-rule="evenodd" d="M7.58709 6.16291C7.22097 5.7968 7.22097 5.2032 7.58709 4.83709L11.3371 1.08709C11.7032 0.720972 12.2968 0.720972 12.6629 1.08709L16.4129 4.83709C16.779 5.2032 16.779 5.7968 16.4129 6.16291C16.0468 6.52903 15.4532 6.52903 15.0871 6.16291L12.9375 4.01333L12.9375 16.75C12.9375 17.2678 12.5178 17.6875 12 17.6875C11.4822 17.6875 11.0625 17.2678 11.0625 16.75L11.0625 4.01333L8.91291 6.16291C8.5468 6.52903 7.9532 6.52903 7.58709 6.16291Z" fill="#65818E"/>
</svg>
