<svg width="44" height="51" viewBox="0 0 44 51" fill="none" xmlns="http://www.w3.org/2000/svg">
<path fill-rule="evenodd" clip-rule="evenodd" d="M22 27.5C28.9036 27.5 34.5 21.9036 34.5 15C34.5 8.09644 28.9036 2.5 22 2.5C15.0964 2.5 9.5 8.09644 9.5 15C9.5 21.9036 15.0964 27.5 22 27.5ZM22.9375 8.75C22.9375 8.23223 22.5178 7.8125 22 7.8125C21.4822 7.8125 21.0625 8.23223 21.0625 8.75V15C21.0625 15.4035 21.3207 15.7618 21.7035 15.8894L25.4535 17.1394C25.9447 17.3031 26.4757 17.0377 26.6394 16.5465C26.8031 16.0553 26.5377 15.5243 26.0465 15.3606L22.9375 14.3243V8.75Z" fill="#989898"/>
<path d="M9.03711 47H7.50586V42.6318H2.44043V47H0.90918V37.1357H2.44043V41.3057H7.50586V37.1357H9.03711V47ZM10.7188 47V39.8086H12.1953V47H10.7188ZM11.457 38.7559C10.9854 38.7559 10.6025 38.3799 10.6025 37.915C10.6025 37.4434 10.9854 37.0674 11.457 37.0674C11.9355 37.0674 12.3184 37.4434 12.3184 37.915C12.3184 38.3799 11.9355 38.7559 11.457 38.7559ZM13.5762 41.8457C13.5762 40.5605 14.7109 39.6787 16.3926 39.6787C17.9922 39.6787 19.1133 40.5742 19.1611 41.8525H17.7734C17.7051 41.2031 17.1787 40.7998 16.3516 40.7998C15.5518 40.7998 15.0186 41.1895 15.0186 41.7568C15.0186 42.2012 15.374 42.502 16.1191 42.6865L17.3291 42.9668C18.7783 43.3154 19.3252 43.8623 19.3252 44.9219C19.3252 46.2344 18.1016 47.1367 16.3379 47.1367C14.6357 47.1367 13.5078 46.2549 13.3916 44.9355H14.8545C14.9707 45.626 15.5039 46.0088 16.4062 46.0088C17.2949 46.0088 17.8418 45.6396 17.8418 45.0586C17.8418 44.6006 17.5684 44.3477 16.8164 44.1562L15.5312 43.8418C14.2324 43.5273 13.5762 42.8506 13.5762 41.8457ZM20.9043 38.1064H22.3877V39.8086H23.7549V40.9775H22.3877V44.9424C22.3877 45.5645 22.6611 45.8447 23.2627 45.8447C23.4131 45.8447 23.6523 45.8311 23.748 45.8105V46.9795C23.584 47.0205 23.2559 47.0479 22.9277 47.0479C21.4717 47.0479 20.9043 46.4941 20.9043 45.1064V40.9775H19.8584V39.8086H20.9043V38.1064ZM27.8838 47.1367C25.8262 47.1367 24.4727 45.7217 24.4727 43.4043C24.4727 41.0938 25.833 39.6787 27.8838 39.6787C29.9346 39.6787 31.2949 41.0938 31.2949 43.4043C31.2949 45.7217 29.9414 47.1367 27.8838 47.1367ZM27.8838 45.9199C29.0459 45.9199 29.791 45.0039 29.791 43.4043C29.791 41.8115 29.0391 40.8955 27.8838 40.8955C26.7285 40.8955 25.9766 41.8115 25.9766 43.4043C25.9766 45.0039 26.7285 45.9199 27.8838 45.9199ZM32.4365 47V39.8086H33.8447V41.0322H33.8789C34.1182 40.1914 34.7607 39.6924 35.6084 39.6924C35.8203 39.6924 36.0049 39.7266 36.1143 39.7471V41.1211C35.998 41.0732 35.7383 41.0391 35.4512 41.0391C34.501 41.0391 33.9131 41.6748 33.9131 42.6934V47H32.4365ZM37.7412 49.6797C37.625 49.6797 37.249 49.666 37.1396 49.6455V48.4492C37.249 48.4766 37.4951 48.4766 37.6182 48.4766C38.3086 48.4766 38.6709 48.1895 38.8965 47.4512C38.8965 47.4375 39.0264 47.0137 39.0264 47.0068L36.4287 39.8086H38.0283L39.8535 45.6602H39.874L41.6992 39.8086H43.2578L40.5576 47.376C39.9424 49.1191 39.2383 49.6797 37.7412 49.6797Z" fill="#989898"/>
</svg>
