<svg width="49" height="48" viewBox="0 0 49 48" fill="none" xmlns="http://www.w3.org/2000/svg">
<g filter="url(#filter0_b_59_374)">
<rect x="0.5" width="48" height="48" rx="24" fill="#525252" fill-opacity="0.4"/>
<path fill-rule="evenodd" clip-rule="evenodd" d="M14.5 18C14.5 15.7909 16.2909 14 18.5 14H30.5C32.7091 14 34.5 15.7909 34.5 18V24.449L32.2535 22.9786C30.519 21.8433 28.2486 21.9639 26.6442 23.2766L21.406 27.5624C20.3082 28.4606 18.7548 28.5431 17.5681 27.7663L14.5 25.7581V18ZM31.432 24.2336L34.5 26.2418V30C34.5 32.2091 32.7091 34 30.5 34H18.5C16.2909 34 14.5 32.2091 14.5 30V27.5509L16.7466 29.0214C18.4811 30.1567 20.7514 30.036 22.3559 28.7233L27.5941 24.4375C28.6918 23.5394 30.2452 23.4568 31.432 24.2336ZM21 23C22.3807 23 23.5 21.8807 23.5 20.5C23.5 19.1193 22.3807 18 21 18C19.6193 18 18.5 19.1193 18.5 20.5C18.5 21.8807 19.6193 23 21 23Z" fill="white"/>
</g>
<defs>
<filter id="filter0_b_59_374" x="-49.5" y="-50" width="148" height="148" filterUnits="userSpaceOnUse" color-interpolation-filters="sRGB">
<feFlood flood-opacity="0" result="BackgroundImageFix"/>
<feGaussianBlur in="BackgroundImageFix" stdDeviation="25"/>
<feComposite in2="SourceAlpha" operator="in" result="effect1_backgroundBlur_59_374"/>
<feBlend mode="normal" in="SourceGraphic" in2="effect1_backgroundBlur_59_374" result="shape"/>
</filter>
</defs>
</svg>
