<svg width="24" height="24" viewBox="0 0 24 24" fill="none" xmlns="http://www.w3.org/2000/svg">
<rect width="24" height="24" rx="4" fill="#3CB2E4"/>
<path d="M11.5214 4.78072C11.6648 4.30723 12.3352 4.30723 12.4785 4.78072L13.8789 9.40609C13.9206 9.54411 14.02 9.65736 14.1514 9.71678L18.1926 11.5445C18.5846 11.7218 18.5846 12.2784 18.1926 12.4556L14.1514 14.2834C14.02 14.3428 13.9206 14.456 13.8789 14.5941L12.4785 19.2194C12.3352 19.6929 11.6648 19.6929 11.5214 19.2194L10.1211 14.5941C10.0793 14.456 9.97994 14.3428 9.84855 14.2834L5.80728 12.4556C5.41533 12.2784 5.41533 11.7218 5.80728 11.5445L9.84855 9.71678C9.97994 9.65736 10.0793 9.54411 10.1211 9.40609L11.5214 4.78072Z" fill="white"/>
</svg>
