<svg width="41" height="41" viewBox="0 0 41 41" fill="none" xmlns="http://www.w3.org/2000/svg">
<path d="M2.5617 0.673462H0.673462V2.5617H2.5617V0.673462Z" fill="black"/>
<path d="M4.44994 0.673462H2.5617V2.5617H4.44994V0.673462Z" fill="black"/>
<path d="M6.33818 0.673462H4.44994V2.5617H6.33818V0.673462Z" fill="black"/>
<path d="M8.22643 0.673462H6.33818V2.5617H8.22643V0.673462Z" fill="black"/>
<path d="M10.1147 0.673462H8.22643V2.5617H10.1147V0.673462Z" fill="black"/>
<path d="M12.0029 0.673462H10.1147V2.5617H12.0029V0.673462Z" fill="black"/>
<path d="M13.8912 0.673462H12.0029V2.5617H13.8912V0.673462Z" fill="black"/>
<path d="M17.6676 0.673462H15.7794V2.5617H17.6676V0.673462Z" fill="black"/>
<path d="M19.5559 0.673462H17.6676V2.5617H19.5559V0.673462Z" fill="black"/>
<path d="M21.4441 0.673462H19.5559V2.5617H21.4441V0.673462Z" fill="black"/>
<path d="M28.9971 0.673462H27.1088V2.5617H28.9971V0.673462Z" fill="black"/>
<path d="M30.8853 0.673462H28.9971V2.5617H30.8853V0.673462Z" fill="black"/>
<path d="M32.7736 0.673462H30.8853V2.5617H32.7736V0.673462Z" fill="black"/>
<path d="M34.6618 0.673462H32.7736V2.5617H34.6618V0.673462Z" fill="black"/>
<path d="M36.55 0.673462H34.6618V2.5617H36.55V0.673462Z" fill="black"/>
<path d="M38.4383 0.673462H36.55V2.5617H38.4383V0.673462Z" fill="black"/>
<path d="M40.3265 0.673462H38.4383V2.5617H40.3265V0.673462Z" fill="black"/>
<path d="M2.5617 2.5617H0.673462V4.44994H2.5617V2.5617Z" fill="black"/>
<path d="M13.8912 2.5617H12.0029V4.44994H13.8912V2.5617Z" fill="black"/>
<path d="M21.4441 2.5617H19.5559V4.44994H21.4441V2.5617Z" fill="black"/>
<path d="M25.2206 2.5617H23.3324V4.44994H25.2206V2.5617Z" fill="black"/>
<path d="M28.9971 2.5617H27.1088V4.44994H28.9971V2.5617Z" fill="black"/>
<path d="M40.3265 2.5617H38.4383V4.44994H40.3265V2.5617Z" fill="black"/>
<path d="M2.5617 4.44994H0.673462V6.33818H2.5617V4.44994Z" fill="black"/>
<path d="M6.33818 4.44994H4.44994V6.33818H6.33818V4.44994Z" fill="black"/>
<path d="M8.22643 4.44994H6.33818V6.33818H8.22643V4.44994Z" fill="black"/>
<path d="M10.1147 4.44994H8.22643V6.33818H10.1147V4.44994Z" fill="black"/>
<path d="M13.8912 4.44994H12.0029V6.33818H13.8912V4.44994Z" fill="black"/>
<path d="M17.6676 4.44994H15.7794V6.33818H17.6676V4.44994Z" fill="black"/>
<path d="M19.5559 4.44994H17.6676V6.33818H19.5559V4.44994Z" fill="black"/>
<path d="M21.4441 4.44994H19.5559V6.33818H21.4441V4.44994Z" fill="black"/>
<path d="M28.9971 4.44994H27.1088V6.33818H28.9971V4.44994Z" fill="black"/>
<path d="M32.7736 4.44994H30.8853V6.33818H32.7736V4.44994Z" fill="black"/>
<path d="M34.6618 4.44994H32.7736V6.33818H34.6618V4.44994Z" fill="black"/>
<path d="M36.55 4.44994H34.6618V6.33818H36.55V4.44994Z" fill="black"/>
<path d="M40.3265 4.44994H38.4383V6.33818H40.3265V4.44994Z" fill="black"/>
<path d="M2.5617 6.33818H0.673462V8.22643H2.5617V6.33818Z" fill="black"/>
<path d="M6.33818 6.33818H4.44994V8.22643H6.33818V6.33818Z" fill="black"/>
<path d="M8.22643 6.33818H6.33818V8.22643H8.22643V6.33818Z" fill="black"/>
<path d="M10.1147 6.33818H8.22643V8.22643H10.1147V6.33818Z" fill="black"/>
<path d="M13.8912 6.33818H12.0029V8.22643H13.8912V6.33818Z" fill="black"/>
<path d="M17.6676 6.33818H15.7794V8.22643H17.6676V6.33818Z" fill="black"/>
<path d="M28.9971 6.33818H27.1088V8.22643H28.9971V6.33818Z" fill="black"/>
<path d="M32.7736 6.33818H30.8853V8.22643H32.7736V6.33818Z" fill="black"/>
<path d="M34.6618 6.33818H32.7736V8.22643H34.6618V6.33818Z" fill="black"/>
<path d="M36.55 6.33818H34.6618V8.22643H36.55V6.33818Z" fill="black"/>
<path d="M40.3265 6.33818H38.4383V8.22643H40.3265V6.33818Z" fill="black"/>
<path d="M2.5617 8.22643H0.673462V10.1147H2.5617V8.22643Z" fill="black"/>
<path d="M6.33818 8.22643H4.44994V10.1147H6.33818V8.22643Z" fill="black"/>
<path d="M8.22643 8.22643H6.33818V10.1147H8.22643V8.22643Z" fill="black"/>
<path d="M10.1147 8.22643H8.22643V10.1147H10.1147V8.22643Z" fill="black"/>
<path d="M13.8912 8.22643H12.0029V10.1147H13.8912V8.22643Z" fill="black"/>
<path d="M19.5559 8.22643H17.6676V10.1147H19.5559V8.22643Z" fill="black"/>
<path d="M21.4441 8.22643H19.5559V10.1147H21.4441V8.22643Z" fill="black"/>
<path d="M23.3324 8.22643H21.4441V10.1147H23.3324V8.22643Z" fill="black"/>
<path d="M28.9971 8.22643H27.1088V10.1147H28.9971V8.22643Z" fill="black"/>
<path d="M32.7736 8.22643H30.8853V10.1147H32.7736V8.22643Z" fill="black"/>
<path d="M34.6618 8.22643H32.7736V10.1147H34.6618V8.22643Z" fill="black"/>
<path d="M36.55 8.22643H34.6618V10.1147H36.55V8.22643Z" fill="black"/>
<path d="M40.3265 8.22643H38.4383V10.1147H40.3265V8.22643Z" fill="black"/>
<path d="M2.5617 10.1147H0.673462V12.0029H2.5617V10.1147Z" fill="black"/>
<path d="M13.8912 10.1147H12.0029V12.0029H13.8912V10.1147Z" fill="black"/>
<path d="M17.6676 10.1147H15.7794V12.0029H17.6676V10.1147Z" fill="black"/>
<path d="M19.5559 10.1147H17.6676V12.0029H19.5559V10.1147Z" fill="black"/>
<path d="M21.4441 10.1147H19.5559V12.0029H21.4441V10.1147Z" fill="black"/>
<path d="M23.3324 10.1147H21.4441V12.0029H23.3324V10.1147Z" fill="black"/>
<path d="M25.2206 10.1147H23.3324V12.0029H25.2206V10.1147Z" fill="black"/>
<path d="M28.9971 10.1147H27.1088V12.0029H28.9971V10.1147Z" fill="black"/>
<path d="M40.3265 10.1147H38.4383V12.0029H40.3265V10.1147Z" fill="black"/>
<path d="M2.5617 12.0029H0.673462V13.8912H2.5617V12.0029Z" fill="black"/>
<path d="M4.44994 12.0029H2.5617V13.8912H4.44994V12.0029Z" fill="black"/>
<path d="M6.33818 12.0029H4.44994V13.8912H6.33818V12.0029Z" fill="black"/>
<path d="M8.22643 12.0029H6.33818V13.8912H8.22643V12.0029Z" fill="black"/>
<path d="M10.1147 12.0029H8.22643V13.8912H10.1147V12.0029Z" fill="black"/>
<path d="M12.0029 12.0029H10.1147V13.8912H12.0029V12.0029Z" fill="black"/>
<path d="M13.8912 12.0029H12.0029V13.8912H13.8912V12.0029Z" fill="black"/>
<path d="M17.6676 12.0029H15.7794V13.8912H17.6676V12.0029Z" fill="black"/>
<path d="M21.4441 12.0029H19.5559V13.8912H21.4441V12.0029Z" fill="black"/>
<path d="M25.2206 12.0029H23.3324V13.8912H25.2206V12.0029Z" fill="black"/>
<path d="M28.9971 12.0029H27.1088V13.8912H28.9971V12.0029Z" fill="black"/>
<path d="M30.8853 12.0029H28.9971V13.8912H30.8853V12.0029Z" fill="black"/>
<path d="M32.7736 12.0029H30.8853V13.8912H32.7736V12.0029Z" fill="black"/>
<path d="M34.6618 12.0029H32.7736V13.8912H34.6618V12.0029Z" fill="black"/>
<path d="M36.55 12.0029H34.6618V13.8912H36.55V12.0029Z" fill="black"/>
<path d="M38.4383 12.0029H36.55V13.8912H38.4383V12.0029Z" fill="black"/>
<path d="M40.3265 12.0029H38.4383V13.8912H40.3265V12.0029Z" fill="black"/>
<path d="M17.6676 13.8912H15.7794V15.7794H17.6676V13.8912Z" fill="black"/>
<path d="M23.3324 13.8912H21.4441V15.7794H23.3324V13.8912Z" fill="black"/>
<path d="M25.2206 13.8912H23.3324V15.7794H25.2206V13.8912Z" fill="black"/>
<path d="M2.5617 15.7794H0.673462V17.6676H2.5617V15.7794Z" fill="black"/>
<path d="M4.44994 15.7794H2.5617V17.6676H4.44994V15.7794Z" fill="black"/>
<path d="M8.22643 15.7794H6.33818V17.6676H8.22643V15.7794Z" fill="black"/>
<path d="M13.8912 15.7794H12.0029V17.6676H13.8912V15.7794Z" fill="black"/>
<path d="M15.7794 15.7794L13.8912 15.7794V17.6676H15.7794L15.7794 15.7794Z" fill="black"/>
<path d="M19.5559 15.7794L17.6676 15.7794V17.6676H19.5559V15.7794Z" fill="black"/>
<path d="M21.4441 15.7794L19.5559 15.7794V17.6676H21.4441V15.7794Z" fill="black"/>
<path d="M25.2206 15.7794H23.3324V17.6676H25.2206V15.7794Z" fill="black"/>
<path d="M27.1088 15.7794L25.2206 15.7794V17.6676H27.1088V15.7794Z" fill="black"/>
<path d="M28.9971 15.7794H27.1088V17.6676H28.9971V15.7794Z" fill="black"/>
<path d="M30.8853 15.7794H28.9971V17.6676H30.8853V15.7794Z" fill="black"/>
<path d="M34.6618 15.7794H32.7736V17.6676H34.6618V15.7794Z" fill="black"/>
<path d="M36.55 15.7794H34.6618V17.6676H36.55V15.7794Z" fill="black"/>
<path d="M40.3265 15.7794H38.4383V17.6676H40.3265V15.7794Z" fill="black"/>
<path d="M6.33818 17.6676H4.44994V19.5559H6.33818V17.6676Z" fill="black"/>
<path d="M8.22643 17.6676H6.33818V19.5559H8.22643V17.6676Z" fill="black"/>
<path d="M10.1147 17.6676H8.22643V19.5559H10.1147V17.6676Z" fill="black"/>
<path d="M15.7794 17.6676H13.8912V19.5559H15.7794V17.6676Z" fill="black"/>
<path d="M19.5559 17.6676H17.6676V19.5559H19.5559V17.6676Z" fill="black"/>
<path d="M23.3324 17.6676H21.4441V19.5559H23.3324V17.6676Z" fill="black"/>
<path d="M30.8853 17.6676H28.9971V19.5559H30.8853V17.6676Z" fill="black"/>
<path d="M38.4383 17.6676H36.55V19.5559H38.4383V17.6676Z" fill="black"/>
<path d="M40.3265 17.6676H38.4383V19.5559H40.3265V17.6676Z" fill="black"/>
<path d="M6.33818 19.5559H4.44994V21.4441H6.33818V19.5559Z" fill="black"/>
<path d="M13.8912 19.5559H12.0029V21.4441H13.8912V19.5559Z" fill="black"/>
<path d="M28.9971 19.5559H27.1088V21.4441H28.9971V19.5559Z" fill="black"/>
<path d="M30.8853 19.5559H28.9971V21.4441H30.8853V19.5559Z" fill="black"/>
<path d="M32.7736 19.5559H30.8853V21.4441H32.7736V19.5559Z" fill="black"/>
<path d="M36.55 19.5559H34.6618V21.4441H36.55V19.5559Z" fill="black"/>
<path d="M38.4383 19.5559H36.55V21.4441H38.4383V19.5559Z" fill="black"/>
<path d="M2.5617 21.4441H0.673462V23.3324H2.5617V21.4441Z" fill="black"/>
<path d="M4.44994 21.4441H2.5617V23.3324H4.44994V21.4441Z" fill="black"/>
<path d="M6.33818 21.4441H4.44994V23.3324H6.33818V21.4441Z" fill="black"/>
<path d="M8.22643 21.4441H6.33818V23.3324H8.22643V21.4441Z" fill="black"/>
<path d="M10.1147 21.4441H8.22643V23.3324H10.1147V21.4441Z" fill="black"/>
<path d="M12.0029 21.4441H10.1147V23.3324H12.0029V21.4441Z" fill="black"/>
<path d="M15.7794 21.4441H13.8912V23.3324H15.7794V21.4441Z" fill="black"/>
<path d="M17.6676 21.4441H15.7794V23.3324H17.6676V21.4441Z" fill="black"/>
<path d="M19.5559 21.4441H17.6676V23.3324H19.5559V21.4441Z" fill="black"/>
<path d="M21.4441 21.4441H19.5559V23.3324H21.4441V21.4441Z" fill="black"/>
<path d="M23.3324 21.4441H21.4441V23.3324H23.3324V21.4441Z" fill="black"/>
<path d="M27.1088 21.4441H25.2206V23.3324H27.1088V21.4441Z" fill="black"/>
<path d="M28.9971 21.4441H27.1088V23.3324H28.9971V21.4441Z" fill="black"/>
<path d="M34.6618 21.4441H32.7736V23.3324H34.6618V21.4441Z" fill="black"/>
<path d="M4.44994 23.3324H2.5617V25.2206H4.44994V23.3324Z" fill="black"/>
<path d="M6.33818 23.3324H4.44994V25.2206H6.33818V23.3324Z" fill="black"/>
<path d="M12.0029 23.3324H10.1147V25.2206H12.0029V23.3324Z" fill="black"/>
<path d="M13.8912 23.3324H12.0029V25.2206H13.8912V23.3324Z" fill="black"/>
<path d="M15.7794 23.3324H13.8912V25.2206H15.7794V23.3324Z" fill="black"/>
<path d="M17.6676 23.3324H15.7794V25.2206H17.6676V23.3324Z" fill="black"/>
<path d="M19.5559 23.3324H17.6676V25.2206H19.5559V23.3324Z" fill="black"/>
<path d="M25.2206 23.3324H23.3324V25.2206H25.2206V23.3324Z" fill="black"/>
<path d="M28.9971 23.3324H27.1088V25.2206H28.9971V23.3324Z" fill="black"/>
<path d="M32.7736 23.3324H30.8853V25.2206H32.7736V23.3324Z" fill="black"/>
<path d="M36.55 23.3324H34.6618V25.2206H36.55V23.3324Z" fill="black"/>
<path d="M19.5559 25.2206H17.6676V27.1088H19.5559V25.2206Z" fill="black"/>
<path d="M32.7736 25.2206H30.8853V27.1088H32.7736V25.2206Z" fill="black"/>
<path d="M38.4383 25.2206H36.55V27.1088H38.4383V25.2206Z" fill="black"/>
<path d="M40.3265 25.2206H38.4383V27.1088H40.3265V25.2206Z" fill="black"/>
<path d="M2.5617 27.1088H0.673462V28.9971H2.5617V27.1088Z" fill="black"/>
<path d="M4.44994 27.1088H2.5617V28.9971H4.44994V27.1088Z" fill="black"/>
<path d="M6.33818 27.1088H4.44994V28.9971H6.33818V27.1088Z" fill="black"/>
<path d="M8.22643 27.1088H6.33818V28.9971H8.22643V27.1088Z" fill="black"/>
<path d="M10.1147 27.1088H8.22643V28.9971H10.1147V27.1088Z" fill="black"/>
<path d="M12.0029 27.1088H10.1147V28.9971H12.0029V27.1088Z" fill="black"/>
<path d="M13.8912 27.1088H12.0029V28.9971H13.8912V27.1088Z" fill="black"/>
<path d="M17.6676 27.1088H15.7794V28.9971H17.6676V27.1088Z" fill="black"/>
<path d="M19.5559 27.1088H17.6676V28.9971H19.5559V27.1088Z" fill="black"/>
<path d="M23.3324 27.1088H21.4441V28.9971H23.3324V27.1088Z" fill="black"/>
<path d="M27.1088 27.1088H25.2206V28.9971H27.1088V27.1088Z" fill="black"/>
<path d="M32.7736 27.1088H30.8853V28.9971H32.7736V27.1088Z" fill="black"/>
<path d="M34.6618 27.1088H32.7736V28.9971H34.6618V27.1088Z" fill="black"/>
<path d="M36.55 27.1088H34.6618V28.9971H36.55V27.1088Z" fill="black"/>
<path d="M2.5617 28.9971H0.673462V30.8853H2.5617V28.9971Z" fill="black"/>
<path d="M13.8912 28.9971H12.0029V30.8853H13.8912V28.9971Z" fill="black"/>
<path d="M19.5559 28.9971H17.6676V30.8853H19.5559V28.9971Z" fill="black"/>
<path d="M23.3324 28.9971H21.4441V30.8853H23.3324V28.9971Z" fill="black"/>
<path d="M28.9971 28.9971H27.1088V30.8853H28.9971V28.9971Z" fill="black"/>
<path d="M30.8853 28.9971H28.9971V30.8853H30.8853V28.9971Z" fill="black"/>
<path d="M32.7736 28.9971H30.8853V30.8853H32.7736V28.9971Z" fill="black"/>
<path d="M38.4383 28.9971H36.55V30.8853H38.4383V28.9971Z" fill="black"/>
<path d="M40.3265 28.9971H38.4383V30.8853H40.3265V28.9971Z" fill="black"/>
<path d="M2.5617 30.8853H0.673462V32.7736H2.5617V30.8853Z" fill="black"/>
<path d="M6.33818 30.8853H4.44994V32.7736H6.33818V30.8853Z" fill="black"/>
<path d="M8.22643 30.8853H6.33818V32.7736H8.22643V30.8853Z" fill="black"/>
<path d="M10.1147 30.8853H8.22643V32.7736H10.1147V30.8853Z" fill="black"/>
<path d="M13.8912 30.8853H12.0029V32.7736H13.8912V30.8853Z" fill="black"/>
<path d="M23.3324 30.8853H21.4441V32.7736H23.3324V30.8853Z" fill="black"/>
<path d="M27.1088 30.8853H25.2206V32.7736H27.1088V30.8853Z" fill="black"/>
<path d="M28.9971 30.8853H27.1088V32.7736H28.9971V30.8853Z" fill="black"/>
<path d="M38.4383 30.8853H36.55V32.7736H38.4383V30.8853Z" fill="black"/>
<path d="M2.5617 32.7736H0.673462V34.6618H2.5617V32.7736Z" fill="black"/>
<path d="M6.33818 32.7736H4.44994V34.6618H6.33818V32.7736Z" fill="black"/>
<path d="M8.22643 32.7736H6.33818V34.6618H8.22643V32.7736Z" fill="black"/>
<path d="M10.1147 32.7736H8.22643V34.6618H10.1147V32.7736Z" fill="black"/>
<path d="M13.8912 32.7736H12.0029V34.6618H13.8912V32.7736Z" fill="black"/>
<path d="M17.6676 32.7736H15.7794V34.6618H17.6676V32.7736Z" fill="black"/>
<path d="M21.4441 32.7736H19.5559V34.6618H21.4441V32.7736Z" fill="black"/>
<path d="M27.1088 32.7736H25.2206V34.6618H27.1088V32.7736Z" fill="black"/>
<path d="M30.8853 32.7736H28.9971V34.6618H30.8853V32.7736Z" fill="black"/>
<path d="M32.7736 32.7736H30.8853V34.6618H32.7736V32.7736Z" fill="black"/>
<path d="M36.55 32.7736H34.6618V34.6618H36.55V32.7736Z" fill="black"/>
<path d="M2.5617 34.6618H0.673462V36.55H2.5617V34.6618Z" fill="black"/>
<path d="M6.33818 34.6618H4.44994V36.55H6.33818V34.6618Z" fill="black"/>
<path d="M8.22643 34.6618H6.33818V36.55H8.22643V34.6618Z" fill="black"/>
<path d="M10.1147 34.6618H8.22643V36.55H10.1147V34.6618Z" fill="black"/>
<path d="M13.8912 34.6618H12.0029V36.55H13.8912V34.6618Z" fill="black"/>
<path d="M19.5559 34.6618H17.6676V36.55H19.5559V34.6618Z" fill="black"/>
<path d="M21.4441 34.6618H19.5559V36.55H21.4441V34.6618Z" fill="black"/>
<path d="M30.8853 34.6618H28.9971V36.55H30.8853V34.6618Z" fill="black"/>
<path d="M32.7736 34.6618H30.8853V36.55H32.7736V34.6618Z" fill="black"/>
<path d="M40.3265 34.6618H38.4383V36.55H40.3265V34.6618Z" fill="black"/>
<path d="M2.5617 36.55H0.673462V38.4383H2.5617V36.55Z" fill="black"/>
<path d="M13.8912 36.55H12.0029V38.4383H13.8912V36.55Z" fill="black"/>
<path d="M17.6676 36.55H15.7794V38.4383H17.6676V36.55Z" fill="black"/>
<path d="M19.5559 36.55H17.6676V38.4383H19.5559V36.55Z" fill="black"/>
<path d="M21.4441 36.55H19.5559V38.4383H21.4441V36.55Z" fill="black"/>
<path d="M27.1088 36.55H25.2206V38.4383H27.1088V36.55Z" fill="black"/>
<path d="M30.8853 36.55H28.9971V38.4383H30.8853V36.55Z" fill="black"/>
<path d="M32.7736 36.55H30.8853V38.4383H32.7736V36.55Z" fill="black"/>
<path d="M34.6618 36.55H32.7736V38.4383H34.6618V36.55Z" fill="black"/>
<path d="M2.5617 38.4383H0.673462V40.3265H2.5617V38.4383Z" fill="black"/>
<path d="M4.44994 38.4383H2.5617V40.3265H4.44994V38.4383Z" fill="black"/>
<path d="M6.33818 38.4383H4.44994V40.3265H6.33818V38.4383Z" fill="black"/>
<path d="M8.22643 38.4383H6.33818V40.3265H8.22643V38.4383Z" fill="black"/>
<path d="M10.1147 38.4383H8.22643V40.3265H10.1147V38.4383Z" fill="black"/>
<path d="M12.0029 38.4383H10.1147V40.3265H12.0029V38.4383Z" fill="black"/>
<path d="M13.8912 38.4383H12.0029V40.3265H13.8912V38.4383Z" fill="black"/>
<path d="M17.6676 38.4383H15.7794V40.3265H17.6676V38.4383Z" fill="black"/>
<path d="M19.5559 38.4383H17.6676V40.3265H19.5559V38.4383Z" fill="black"/>
<path d="M21.4441 38.4383H19.5559V40.3265H21.4441V38.4383Z" fill="black"/>
<path d="M27.1088 38.4383H25.2206V40.3265H27.1088V38.4383Z" fill="black"/>
<path d="M30.8853 38.4383H28.9971V40.3265H30.8853V38.4383Z" fill="black"/>
<path d="M32.7736 38.4383H30.8853V40.3265H32.7736V38.4383Z" fill="black"/>
<path d="M38.4383 38.4383H36.55V40.3265H38.4383V38.4383Z" fill="black"/>
</svg>
