<svg width="31" height="51" viewBox="0 0 31 51" fill="none" xmlns="http://www.w3.org/2000/svg">
<path d="M3 10V7.5C3 4.73858 5.23858 2.5 8 2.5H10.5M20.5 2.5H23C25.7614 2.5 28 4.73858 28 7.5V10M28 19.9306V22.5C28 25.2614 25.7614 27.5 23 27.5H20.5M10.5 27.5H8C5.23858 27.5 3 25.2614 3 22.5V19.9306M9.25 15H21.75M20.5 11.875V9.375M15.5 11.875V9.375M10.5 11.875V9.375M15.5 20.625V18.125M20.5 20.625V18.125M10.5 20.625V18.125" stroke="#989898" stroke-width="1.5" stroke-linecap="round" stroke-linejoin="round"/>
<path d="M0.47168 44.252H1.98242C2.0918 45.2295 3.04199 45.8721 4.34082 45.8721C5.58496 45.8721 6.48047 45.2295 6.48047 44.3477C6.48047 43.582 5.94043 43.124 4.66211 42.8096L3.38379 42.502C1.57227 42.0645 0.731445 41.2168 0.731445 39.8428C0.731445 38.1406 2.21484 36.9717 4.32031 36.9717C6.40527 36.9717 7.83398 38.1406 7.88184 39.8428H6.3916C6.30273 38.8584 5.48926 38.2637 4.2998 38.2637C3.11035 38.2637 2.29688 38.8652 2.29688 39.7402C2.29688 40.4375 2.81641 40.8477 4.08789 41.1621L5.1748 41.4287C7.19824 41.9072 8.03906 42.7207 8.03906 44.1631C8.03906 46.0088 6.56934 47.1641 4.23145 47.1641C2.04395 47.1641 0.567383 46.0361 0.47168 44.252ZM15.4082 42.2832H14C13.8496 41.5176 13.2754 40.9092 12.3115 40.9092C11.1699 40.9092 10.418 41.8594 10.418 43.4043C10.418 44.9834 11.1768 45.8994 12.3252 45.8994C13.2344 45.8994 13.8291 45.4004 14 44.5664H15.4219C15.2646 46.0977 14.041 47.1367 12.3115 47.1367C10.2539 47.1367 8.91406 45.7285 8.91406 43.4043C8.91406 41.1211 10.2539 39.6787 12.2979 39.6787C14.1504 39.6787 15.2783 40.8682 15.4082 42.2832ZM18.9834 45.9541C20.0156 45.9541 20.8223 45.2432 20.8223 44.3066V43.7393L19.0518 43.8486C18.1699 43.9102 17.6709 44.2998 17.6709 44.915C17.6709 45.5439 18.1904 45.9541 18.9834 45.9541ZM18.5732 47.123C17.165 47.123 16.1807 46.248 16.1807 44.9561C16.1807 43.6982 17.1445 42.9258 18.8535 42.8301L20.8223 42.7139V42.1602C20.8223 41.3604 20.2822 40.8818 19.3799 40.8818C18.5254 40.8818 17.9922 41.292 17.8623 41.9346H16.4678C16.5498 40.6357 17.6572 39.6787 19.4346 39.6787C21.1777 39.6787 22.292 40.6016 22.292 42.0439V47H20.877V45.8174H20.8428C20.4258 46.6172 19.5166 47.123 18.5732 47.123ZM23.7275 47V39.8086H25.1357V41.0117H25.1699C25.5596 40.1914 26.3252 39.6855 27.4326 39.6855C29.0186 39.6855 29.9277 40.6973 29.9277 42.3447V47H28.4443V42.6318C28.4443 41.5518 27.9385 40.957 26.9131 40.957C25.874 40.957 25.2041 41.6953 25.2041 42.8096V47H23.7275Z" fill="#989898"/>
</svg>
