<svg width="24" height="24" viewBox="0 0 24 24" fill="none" xmlns="http://www.w3.org/2000/svg">
<g clip-path="url(#clip0_85_4478)">
<path d="M6 6C6 5.20435 6.31607 4.44129 6.87868 3.87868C7.44129 3.31607 8.20435 3 9 3H15C15.7957 3 16.5587 3.31607 17.1213 3.87868C17.6839 4.44129 18 5.20435 18 6V18C18 18.7956 17.6839 19.5587 17.1213 20.1213C16.5587 20.6839 15.7957 21 15 21H9C8.20435 21 7.44129 20.6839 6.87868 20.1213C6.31607 19.5587 6 18.7956 6 18V6ZM13.5 16.5C13.5 16.1022 13.342 15.7206 13.0607 15.4393C12.7794 15.158 12.3978 15 12 15C11.6022 15 11.2206 15.158 10.9393 15.4393C10.658 15.7206 10.5 16.1022 10.5 16.5C10.5 16.8978 10.658 17.2794 10.9393 17.5607C11.2206 17.842 11.6022 18 12 18C12.3978 18 12.7794 17.842 13.0607 17.5607C13.342 17.2794 13.5 16.8978 13.5 16.5ZM2.7105 7.101C2.80359 6.92516 2.82302 6.71954 2.76451 6.52938C2.706 6.33922 2.57434 6.18009 2.3985 6.087C2.22266 5.99391 2.01705 5.97448 1.82688 6.03299C1.63672 6.09151 1.47759 6.22316 1.3845 6.399C0.474365 8.12562 -0.000870639 10.0482 1.1974e-06 12C1.1974e-06 14.0205 0.501001 15.927 1.3845 17.601C1.4306 17.6881 1.49339 17.7652 1.56929 17.828C1.6452 17.8908 1.73273 17.938 1.82688 17.967C1.92104 17.996 2.01999 18.0061 2.11806 17.9969C2.21614 17.9876 2.31143 17.9591 2.3985 17.913C2.48557 17.8669 2.5627 17.8041 2.6255 17.7282C2.6883 17.6523 2.73554 17.5648 2.76451 17.4706C2.79348 17.3765 2.80362 17.2775 2.79436 17.1794C2.78509 17.0814 2.7566 16.9861 2.7105 16.899C1.91475 15.3887 1.49925 13.7071 1.5 12C1.5 10.23 1.938 8.562 2.7105 7.101ZM22.6155 6.399C22.5224 6.22316 22.3633 6.09151 22.1731 6.03299C21.983 5.97448 21.7773 5.99391 21.6015 6.087C21.4257 6.18009 21.294 6.33922 21.2355 6.52938C21.177 6.71954 21.1964 6.92516 21.2895 7.101C22.062 8.562 22.5 10.2285 22.5 12C22.5 13.77 22.062 15.438 21.2895 16.899C21.1964 17.0748 21.177 17.2805 21.2355 17.4706C21.294 17.6608 21.4257 17.8199 21.6015 17.913C21.7773 18.0061 21.983 18.0255 22.1731 17.967C22.3633 17.9085 22.5224 17.7768 22.6155 17.601C23.5256 15.8744 24.0009 13.9518 24 12C24.0009 10.0482 23.5256 8.12562 22.6155 6.399ZM5.01 9.273C5.05186 9.1803 5.07442 9.08005 5.07632 8.97835C5.07822 8.87666 5.05941 8.77564 5.02104 8.68144C4.98267 8.58724 4.92554 8.50183 4.85313 8.4304C4.78071 8.35897 4.69452 8.30302 4.59981 8.26595C4.50509 8.22888 4.40382 8.21146 4.30216 8.21475C4.2005 8.21805 4.10057 8.24199 4.00845 8.28511C3.91633 8.32824 3.83395 8.38965 3.76631 8.46562C3.69867 8.54158 3.64719 8.63051 3.615 8.727C3.20818 9.77024 2.99961 10.8802 3 12C3 13.1535 3.2175 14.2575 3.615 15.273C3.64719 15.3695 3.69867 15.4584 3.76631 15.5344C3.83395 15.6103 3.91633 15.6718 4.00845 15.7149C4.10057 15.758 4.2005 15.782 4.30216 15.7852C4.40382 15.7885 4.50509 15.7711 4.59981 15.734C4.69452 15.697 4.78071 15.641 4.85313 15.5696C4.92554 15.4982 4.98267 15.4128 5.02104 15.3186C5.05941 15.2244 5.07822 15.1233 5.07632 15.0216C5.07442 14.92 5.05186 14.8197 5.01 14.727C4.6719 13.8576 4.49894 12.9328 4.5 12C4.5 11.037 4.68 10.1175 5.01 9.273ZM20.385 8.727C20.3059 8.55175 20.1625 8.41359 19.9844 8.34105C19.8063 8.26851 19.6072 8.26715 19.4281 8.33723C19.249 8.40731 19.1037 8.54349 19.0222 8.71764C18.9407 8.89179 18.9291 9.0906 18.99 9.273C19.32 10.1175 19.5 11.037 19.5 12C19.5 12.963 19.32 13.8825 18.99 14.727C18.9291 14.9094 18.9407 15.1082 19.0222 15.2824C19.1037 15.4565 19.249 15.5927 19.4281 15.6628C19.6072 15.7329 19.8063 15.7315 19.9844 15.659C20.1625 15.5864 20.3059 15.4483 20.385 15.273C20.784 14.2575 21 13.1535 21 12C21 10.8465 20.7825 9.7425 20.385 8.727Z" fill="#3CB2E4"/>
</g>
<defs>
<clipPath id="clip0_85_4478">
<rect width="24" height="24" fill="white"/>
</clipPath>
</defs>
</svg>
