<svg width="24" height="24" viewBox="0 0 24 24" fill="none" xmlns="http://www.w3.org/2000/svg">
<g clip-path="url(#clip0_85_4476)">
<path d="M6.37439 5.4792C5.02799 6.822 -0.858007 15.2172 4.22759 20.3016C9.31079 25.3872 17.7036 19.5 19.0524 18.1548C20.3976 16.812 18.6504 12.8808 15.15 9.3804C11.6472 5.8776 7.72079 4.1292 6.37439 5.4792ZM17.4912 16.9872C17.0928 17.3808 14.0172 16.4388 11.0544 13.4736C8.09399 10.5108 7.14719 7.434 7.54559 7.038C7.93919 6.6396 11.0184 7.5864 13.9776 10.5492C16.9428 13.5096 17.8872 16.5888 17.4912 16.9872ZM18.5208 7.1784L20.8056 4.8912C21.0306 4.66619 21.157 4.36101 21.157 4.0428C21.157 3.72459 21.0306 3.41941 20.8056 3.1944C20.5806 2.96939 20.2754 2.84298 19.9572 2.84298C19.639 2.84298 19.3338 2.96939 19.1088 3.1944L16.824 5.4816C16.599 5.70661 16.4726 6.01179 16.4726 6.33C16.4726 6.48756 16.5036 6.64358 16.5639 6.78915C16.6242 6.93472 16.7126 7.06699 16.824 7.1784C16.9354 7.28981 17.0677 7.37819 17.2132 7.43849C17.3588 7.49879 17.5148 7.52982 17.6724 7.52982C17.9906 7.52982 18.2958 7.40341 18.5208 7.1784ZM13.3488 4.56C13.4865 4.63659 13.638 4.68531 13.7945 4.70336C13.9511 4.72141 14.1097 4.70845 14.2612 4.66522C14.4128 4.62198 14.5543 4.54932 14.6778 4.45138C14.8012 4.35344 14.9042 4.23213 14.9808 4.0944L16.2852 1.7832C16.4399 1.50504 16.4777 1.17683 16.3904 0.870771C16.3031 0.564712 16.0978 0.305874 15.8196 0.1512C15.5414 -0.00347435 15.2132 -0.0413153 14.9072 0.0460016C14.6011 0.133319 14.3423 0.338641 14.1876 0.6168L12.8832 2.928C12.8066 3.06573 12.7579 3.2172 12.7398 3.37375C12.7218 3.53031 12.7347 3.68889 12.778 3.84043C12.8212 3.99198 12.8939 4.13353 12.9918 4.25699C13.0898 4.38045 13.2111 4.48342 13.3488 4.56ZM23.8464 8.1792C23.7699 8.04135 23.667 7.91993 23.5436 7.8219C23.4201 7.72387 23.2786 7.65115 23.127 7.60791C22.9754 7.56466 22.8167 7.55173 22.6602 7.56987C22.5036 7.58801 22.3521 7.63685 22.2144 7.7136L19.8864 8.9868C19.7487 9.06339 19.6274 9.16635 19.5294 9.28982C19.4315 9.41328 19.3588 9.55483 19.3156 9.70637C19.2724 9.85792 19.2594 10.0165 19.2774 10.173C19.2955 10.3296 19.3442 10.4811 19.4208 10.6188C19.4974 10.7565 19.6003 10.8778 19.7238 10.9758C19.8473 11.0737 19.9888 11.1464 20.1404 11.1896C20.2919 11.2328 20.4505 11.2458 20.607 11.2277C20.7636 11.2097 20.9151 11.161 21.0528 11.0844L23.3808 9.8112C23.5185 9.73462 23.6398 9.63165 23.7378 9.50819C23.8357 9.38473 23.9084 9.24318 23.9516 9.09163C23.9948 8.94009 24.0078 8.78151 23.9898 8.62495C23.9717 8.4684 23.923 8.31693 23.8464 8.1792Z" fill="#3CB2E4"/>
</g>
<defs>
<clipPath id="clip0_85_4476">
<rect width="24" height="24" fill="white"/>
</clipPath>
</defs>
</svg>
