<svg width="14" height="18" viewBox="0 0 14 18" fill="none" xmlns="http://www.w3.org/2000/svg">
<path d="M7 13.23C7.142 13.23 7.261 13.1823 7.357 13.087C7.45233 12.991 7.5 12.8723 7.5 12.731V8.07699C7.5 7.93499 7.452 7.81632 7.356 7.72099C7.26 7.62499 7.141 7.57699 6.999 7.57699C6.857 7.57699 6.73833 7.62499 6.643 7.72099C6.54767 7.81632 6.5 7.93499 6.5 8.07699V12.731C6.5 12.8723 6.548 12.991 6.644 13.087C6.74 13.183 6.859 13.231 7.001 13.231M7 5.99999C7.17467 5.99999 7.32067 5.94099 7.438 5.82299C7.556 5.70499 7.615 5.55899 7.615 5.38499C7.615 5.21032 7.556 5.06399 7.438 4.94599C7.32067 4.82799 7.17467 4.76899 7 4.76899C6.82533 4.76899 6.67933 4.82799 6.562 4.94599C6.444 5.06399 6.385 5.21032 6.385 5.38499C6.385 5.55899 6.444 5.70499 6.562 5.82299C6.67933 5.94099 6.82533 5.99999 7 5.99999ZM7 17.842C6.90867 17.842 6.813 17.8337 6.713 17.817C6.613 17.8003 6.51967 17.7753 6.433 17.742C4.46433 16.992 2.9 15.72 1.74 13.926C0.58 12.132 0 10.19 0 8.09999V3.81699C0 3.47432 0.0976669 3.16565 0.293 2.89099C0.488334 2.61632 0.740667 2.41732 1.05 2.29399L6.435 0.293988C6.62967 0.223322 6.818 0.187988 7 0.187988C7.182 0.187988 7.37033 0.223322 7.565 0.293988L12.95 2.29399C13.2593 2.41732 13.5117 2.61632 13.707 2.89099C13.9023 3.16565 14 3.47432 14 3.81699V8.09999C14 10.19 13.42 12.132 12.26 13.926C11.1 15.72 9.536 16.992 7.568 17.742C7.48067 17.7753 7.387 17.8003 7.287 17.817C7.187 17.8337 7.09133 17.842 7 17.842Z" fill="#3CB2E4"/>
</svg>
