<svg width="24" height="24" viewBox="0 0 24 24" fill="none" xmlns="http://www.w3.org/2000/svg">
<path d="M8.4 14.65C8.55 14.25 8.671 13.829 8.763 13.387C8.855 12.945 8.90067 12.4827 8.9 12C8.9 11.5167 8.85433 11.054 8.763 10.612C8.67167 10.17 8.55067 9.74933 8.4 9.35L6.55 10.1C6.65 10.4 6.73333 10.7083 6.8 11.025C6.86667 11.3417 6.9 11.6667 6.9 12C6.9 12.3333 6.86667 12.6583 6.8 12.975C6.73333 13.2917 6.65 13.6 6.55 13.9L8.4 14.65ZM11.6 16C11.8833 15.3667 12.0877 14.7167 12.213 14.05C12.3383 13.3833 12.4007 12.7 12.4 12C12.4 11.3 12.3377 10.6167 12.213 9.95C12.0883 9.28333 11.884 8.63333 11.6 8L9.75 8.75C9.98333 9.25 10.15 9.771 10.25 10.313C10.35 10.855 10.4 11.4173 10.4 12C10.4 12.5833 10.35 13.146 10.25 13.688C10.15 14.23 9.98333 14.7507 9.75 15.25L11.6 16ZM14.85 17.35C15.2 16.5167 15.4627 15.654 15.638 14.762C15.8133 13.87 15.9007 12.9493 15.9 12C15.9 11.05 15.8127 10.1293 15.638 9.238C15.4633 8.34667 15.2007 7.484 14.85 6.65L13 7.45C13.3 8.15 13.525 8.88333 13.675 9.65C13.825 10.4167 13.9 11.2 13.9 12C13.9 12.8 13.825 13.5833 13.675 14.35C13.525 15.1167 13.3 15.85 13 16.55L14.85 17.35ZM12 22C10.6167 22 9.31667 21.7373 8.1 21.212C6.88333 20.6867 5.825 19.9743 4.925 19.075C4.025 18.175 3.31267 17.1167 2.788 15.9C2.26333 14.6833 2.00067 13.3833 2 12C2 10.6167 2.26267 9.31667 2.788 8.1C3.31333 6.88333 4.02567 5.825 4.925 4.925C5.825 4.025 6.88333 3.31267 8.1 2.788C9.31667 2.26333 10.6167 2.00067 12 2C13.3833 2 14.6833 2.26267 15.9 2.788C17.1167 3.31333 18.175 4.02567 19.075 4.925C19.975 5.825 20.6877 6.88333 21.213 8.1C21.7383 9.31667 22.0007 10.6167 22 12C22 13.3833 21.7373 14.6833 21.212 15.9C20.6867 17.1167 19.9743 18.175 19.075 19.075C18.175 19.975 17.1167 20.6877 15.9 21.213C14.6833 21.7383 13.3833 22.0007 12 22Z" fill="#3CB2E4"/>
</svg>
