<svg width="51" height="51" viewBox="0 0 51 51" fill="none" xmlns="http://www.w3.org/2000/svg">
<path fill-rule="evenodd" clip-rule="evenodd" d="M24.3068 3.75H26.6932C28.0111 3.75 29.0796 4.75736 29.0796 6C29.0796 7.42202 30.601 8.3261 31.85 7.64622L31.9769 7.57717C33.1182 6.95585 34.5777 7.32457 35.2367 8.40073L36.4299 10.3493C37.0889 11.4254 36.6978 12.8015 35.5564 13.4228C34.3069 14.103 34.3069 15.897 35.5564 16.5772C36.6978 17.1985 37.0889 18.5746 36.4299 19.6507L35.2367 21.5993C34.5777 22.6754 33.1182 23.0441 31.9769 22.4228L31.85 22.3538C30.601 21.6739 29.0796 22.578 29.0796 24C29.0796 25.2426 28.0111 26.25 26.6932 26.25H24.3068C22.9889 26.25 21.9204 25.2426 21.9204 24C21.9204 22.578 20.399 21.6739 19.15 22.3538L19.0231 22.4228C17.8818 23.0442 16.4223 22.6754 15.7633 21.5993L14.5701 19.6507C13.9111 18.5746 14.3022 17.1985 15.4436 16.5772C16.6931 15.897 16.6931 14.103 15.4436 13.4228C14.3022 12.8015 13.9111 11.4254 14.5701 10.3493L15.7633 8.40071C16.4223 7.32455 17.8818 6.95584 19.0231 7.57716L19.15 7.64621C20.399 8.32609 21.9204 7.42202 21.9204 6C21.9204 4.75736 22.9889 3.75 24.3068 3.75ZM25.5 18.75C27.5711 18.75 29.25 17.0711 29.25 15C29.25 12.9289 27.5711 11.25 25.5 11.25C23.4289 11.25 21.75 12.9289 21.75 15C21.75 17.0711 23.4289 18.75 25.5 18.75Z" fill="#989898"/>
<path d="M0.47168 44.252H1.98242C2.0918 45.2295 3.04199 45.8721 4.34082 45.8721C5.58496 45.8721 6.48047 45.2295 6.48047 44.3477C6.48047 43.582 5.94043 43.124 4.66211 42.8096L3.38379 42.502C1.57227 42.0645 0.731445 41.2168 0.731445 39.8428C0.731445 38.1406 2.21484 36.9717 4.32031 36.9717C6.40527 36.9717 7.83398 38.1406 7.88184 39.8428H6.3916C6.30273 38.8584 5.48926 38.2637 4.2998 38.2637C3.11035 38.2637 2.29688 38.8652 2.29688 39.7402C2.29688 40.4375 2.81641 40.8477 4.08789 41.1621L5.1748 41.4287C7.19824 41.9072 8.03906 42.7207 8.03906 44.1631C8.03906 46.0088 6.56934 47.1641 4.23145 47.1641C2.04395 47.1641 0.567383 46.0361 0.47168 44.252ZM12.2432 40.8682C11.2109 40.8682 10.4863 41.6543 10.4111 42.7412H14.0068C13.9727 41.6406 13.2754 40.8682 12.2432 40.8682ZM14 44.8877H15.4014C15.1963 46.2002 13.9521 47.1367 12.3047 47.1367C10.1924 47.1367 8.91406 45.708 8.91406 43.4385C8.91406 41.1826 10.2129 39.6787 12.2432 39.6787C14.2393 39.6787 15.4834 41.0869 15.4834 43.2676V43.7734H10.4043V43.8623C10.4043 45.1133 11.1562 45.9404 12.3389 45.9404C13.1797 45.9404 13.8018 45.5166 14 44.8877ZM17.0625 38.1064H18.5459V39.8086H19.9131V40.9775H18.5459V44.9424C18.5459 45.5645 18.8193 45.8447 19.4209 45.8447C19.5713 45.8447 19.8105 45.8311 19.9062 45.8105V46.9795C19.7422 47.0205 19.4141 47.0479 19.0859 47.0479C17.6299 47.0479 17.0625 46.4941 17.0625 45.1064V40.9775H16.0166V39.8086H17.0625V38.1064ZM21.5605 38.1064H23.0439V39.8086H24.4111V40.9775H23.0439V44.9424C23.0439 45.5645 23.3174 45.8447 23.9189 45.8447C24.0693 45.8447 24.3086 45.8311 24.4043 45.8105V46.9795C24.2402 47.0205 23.9121 47.0479 23.584 47.0479C22.1279 47.0479 21.5605 46.4941 21.5605 45.1064V40.9775H20.5146V39.8086H21.5605V38.1064ZM25.6758 47V39.8086H27.1523V47H25.6758ZM26.4141 38.7559C25.9424 38.7559 25.5596 38.3799 25.5596 37.915C25.5596 37.4434 25.9424 37.0674 26.4141 37.0674C26.8926 37.0674 27.2754 37.4434 27.2754 37.915C27.2754 38.3799 26.8926 38.7559 26.4141 38.7559ZM28.6631 47V39.8086H30.0713V41.0117H30.1055C30.4951 40.1914 31.2607 39.6855 32.3682 39.6855C33.9541 39.6855 34.8633 40.6973 34.8633 42.3447V47H33.3799V42.6318C33.3799 41.5518 32.874 40.957 31.8486 40.957C30.8096 40.957 30.1396 41.6953 30.1396 42.8096V47H28.6631ZM39.3545 45.8037C40.5098 45.8037 41.2686 44.8672 41.2686 43.3838C41.2686 41.9072 40.5098 40.9365 39.3545 40.9365C38.2197 40.9365 37.4814 41.8867 37.4814 43.3838C37.4814 44.8877 38.2197 45.8037 39.3545 45.8037ZM39.3682 49.707C37.6729 49.707 36.415 48.8047 36.2305 47.5605H37.7139C37.9258 48.1621 38.582 48.5586 39.4229 48.5586C40.5781 48.5586 41.2617 47.9023 41.2617 46.918V45.7354H41.2344C40.8311 46.5146 39.9834 47.0273 38.958 47.0273C37.1533 47.0273 35.9707 45.6191 35.9707 43.377C35.9707 41.1143 37.1465 39.6924 38.9922 39.6924C40.0107 39.6924 40.8447 40.2051 41.2822 41.0391H41.3096V39.8086H42.7451V46.8701C42.7451 48.5859 41.4189 49.707 39.3682 49.707ZM44.0781 41.8457C44.0781 40.5605 45.2129 39.6787 46.8945 39.6787C48.4941 39.6787 49.6152 40.5742 49.6631 41.8525H48.2754C48.207 41.2031 47.6807 40.7998 46.8535 40.7998C46.0537 40.7998 45.5205 41.1895 45.5205 41.7568C45.5205 42.2012 45.876 42.502 46.6211 42.6865L47.8311 42.9668C49.2803 43.3154 49.8271 43.8623 49.8271 44.9219C49.8271 46.2344 48.6035 47.1367 46.8398 47.1367C45.1377 47.1367 44.0098 46.2549 43.8936 44.9355H45.3564C45.4727 45.626 46.0059 46.0088 46.9082 46.0088C47.7969 46.0088 48.3438 45.6396 48.3438 45.0586C48.3438 44.6006 48.0703 44.3477 47.3184 44.1562L46.0332 43.8418C44.7344 43.5273 44.0781 42.8506 44.0781 41.8457Z" fill="#989898"/>
</svg>
