<svg width="17" height="25" viewBox="0 0 17 25" fill="none" xmlns="http://www.w3.org/2000/svg">
<path d="M4.25977 11.6602H13.1465C13.3223 11.6602 13.472 11.5983 13.5957 11.4746C13.7194 11.3509 13.7812 11.2044 13.7812 11.0352C13.7812 10.8594 13.7194 10.7096 13.5957 10.5859C13.472 10.4557 13.3223 10.3906 13.1465 10.3906H4.25977C4.08398 10.3906 3.93424 10.4557 3.81055 10.5859C3.68685 10.7096 3.625 10.8594 3.625 11.0352C3.625 11.2044 3.68685 11.3509 3.81055 11.4746C3.93424 11.5983 4.08398 11.6602 4.25977 11.6602ZM4.25977 15.2344H13.1465C13.3223 15.2344 13.472 15.1725 13.5957 15.0488C13.7194 14.9251 13.7812 14.7754 13.7812 14.5996C13.7812 14.4238 13.7194 14.2773 13.5957 14.1602C13.472 14.0365 13.3223 13.9746 13.1465 13.9746H4.25977C4.08398 13.9746 3.93424 14.0365 3.81055 14.1602C3.68685 14.2773 3.625 14.4238 3.625 14.5996C3.625 14.7754 3.68685 14.9251 3.81055 15.0488C3.93424 15.1725 4.08398 15.2344 4.25977 15.2344ZM4.25977 19.0039H8.73242C8.90169 19.0039 9.04818 18.9421 9.17188 18.8184C9.29557 18.6882 9.35742 18.5384 9.35742 18.3691C9.35742 18.1934 9.29557 18.0469 9.17188 17.9297C9.05469 17.806 8.9082 17.7441 8.73242 17.7441H4.25977C4.08398 17.7441 3.93424 17.806 3.81055 17.9297C3.68685 18.0469 3.625 18.1934 3.625 18.3691C3.625 18.5384 3.68685 18.6882 3.81055 18.8184C3.93424 18.9421 4.08398 19.0039 4.25977 19.0039ZM3.51758 24.2188C2.50846 24.2188 1.75 23.9616 1.24219 23.4473C0.740885 22.9395 0.490234 22.1745 0.490234 21.1523V6.33789C0.490234 5.31576 0.73763 4.55078 1.23242 4.04297C1.72721 3.52865 2.45638 3.27148 3.41992 3.27148H3.64453C3.64453 3.29102 3.64453 3.3138 3.64453 3.33984C3.64453 3.35938 3.64453 3.37891 3.64453 3.39844V4.55078C3.64453 5.16276 3.83333 5.66732 4.21094 6.06445C4.58854 6.45508 5.08008 6.65039 5.68555 6.65039H11.7207C12.3262 6.65039 12.8177 6.45508 13.1953 6.06445C13.5729 5.66732 13.7617 5.16276 13.7617 4.55078V3.39844C13.7617 3.37891 13.7617 3.35938 13.7617 3.33984C13.7617 3.3138 13.7617 3.29102 13.7617 3.27148H13.9863C14.9499 3.27148 15.679 3.52865 16.1738 4.04297C16.6686 4.55078 16.916 5.31576 16.916 6.33789V21.1523C16.916 22.1745 16.6621 22.9395 16.1543 23.4473C15.653 23.9616 14.8978 24.2188 13.8887 24.2188H3.51758ZM5.68555 5.51758C5.39909 5.51758 5.17448 5.43294 5.01172 5.26367C4.85547 5.0944 4.77734 4.85677 4.77734 4.55078V3.52539C4.77734 3.2194 4.85547 2.98177 5.01172 2.8125C5.17448 2.64323 5.39909 2.55859 5.68555 2.55859H6.58398C6.61654 2.00521 6.83464 1.5332 7.23828 1.14258C7.64844 0.751953 8.13672 0.556641 8.70312 0.556641C9.26953 0.556641 9.75456 0.751953 10.1582 1.14258C10.5684 1.5332 10.7897 2.00521 10.8223 2.55859H11.7207C12.0072 2.55859 12.2285 2.64323 12.3848 2.8125C12.5475 2.98177 12.6289 3.2194 12.6289 3.52539V4.55078C12.6289 4.85677 12.5475 5.0944 12.3848 5.26367C12.2285 5.43294 12.0072 5.51758 11.7207 5.51758H5.68555ZM8.70312 3.48633C8.9375 3.48633 9.13607 3.40169 9.29883 3.23242C9.4681 3.06315 9.55273 2.86458 9.55273 2.63672C9.55273 2.39583 9.4681 2.19401 9.29883 2.03125C9.13607 1.86198 8.9375 1.77734 8.70312 1.77734C8.46875 1.77734 8.26693 1.86198 8.09766 2.03125C7.9349 2.19401 7.85352 2.39583 7.85352 2.63672C7.85352 2.86458 7.9349 3.06315 8.09766 3.23242C8.26693 3.40169 8.46875 3.48633 8.70312 3.48633Z" fill="#3CB2E4"/>
</svg>
