<svg width="130" height="130" viewBox="0 0 130 130" fill="none" xmlns="http://www.w3.org/2000/svg">
<rect x="5" y="5" width="120" height="120" rx="26.4444" fill="#3CB2E4"/>
<g filter="url(#filter0_f_59_330)">
<rect x="10" y="10" width="110" height="110" rx="26.4444" fill="#81CCEB"/>
</g>
<rect x="13" y="13" width="104" height="104" rx="26.44" fill="white"/>
<path d="M32.4286 29H29V32.4286H32.4286V29Z" fill="black"/>
<path d="M35.8571 29H32.4286V32.4286H35.8571V29Z" fill="black"/>
<path d="M39.2857 29H35.8571V32.4286H39.2857V29Z" fill="black"/>
<path d="M42.7143 29H39.2857V32.4286H42.7143V29Z" fill="black"/>
<path d="M46.1429 29H42.7143V32.4286H46.1429V29Z" fill="black"/>
<path d="M49.5714 29H46.1429V32.4286H49.5714V29Z" fill="black"/>
<path d="M53 29H49.5714V32.4286H53V29Z" fill="black"/>
<path d="M59.8571 29H56.4286V32.4286H59.8571V29Z" fill="black"/>
<path d="M63.2857 29H59.8571V32.4286H63.2857V29Z" fill="black"/>
<path d="M66.7143 29H63.2857V32.4286H66.7143V29Z" fill="black"/>
<path d="M80.4286 29H77V32.4286H80.4286V29Z" fill="#FF0000"/>
<path d="M83.8571 29H80.4286V32.4286H83.8571V29Z" fill="#FF0000"/>
<path d="M87.2857 29H83.8571V32.4286H87.2857V29Z" fill="#FF0000"/>
<path d="M90.7143 29H87.2857V32.4286H90.7143V29Z" fill="#FF0000"/>
<path d="M94.1428 29H90.7143V32.4286H94.1428V29Z" fill="#FF0000"/>
<path d="M97.5714 29H94.1428V32.4286H97.5714V29Z" fill="#FF0000"/>
<path d="M101 29H97.5714V32.4286H101V29Z" fill="#FF0000"/>
<path d="M32.4286 32.4286H29V35.8571H32.4286V32.4286Z" fill="black"/>
<path d="M53 32.4286H49.5714V35.8571H53V32.4286Z" fill="black"/>
<path d="M66.7143 32.4286H63.2857L63.2857 35.8571H66.7143V32.4286Z" fill="black"/>
<path d="M73.5714 32.4286H70.1428V35.8571H73.5714V32.4286Z" fill="black"/>
<path d="M80.4286 32.4286H77V35.8571H80.4286V32.4286Z" fill="#FF0000"/>
<path d="M101 32.4286H97.5714V35.8571H101V32.4286Z" fill="#FF0000"/>
<path d="M32.4286 35.8571H29V39.2857H32.4286V35.8571Z" fill="black"/>
<path d="M39.2857 35.8571H35.8571V39.2857H39.2857V35.8571Z" fill="black"/>
<path d="M42.7143 35.8571H39.2857V39.2857H42.7143V35.8571Z" fill="black"/>
<path d="M46.1429 35.8571H42.7143V39.2857H46.1429V35.8571Z" fill="black"/>
<path d="M53 35.8571H49.5714V39.2857H53V35.8571Z" fill="black"/>
<path d="M59.8571 35.8571H56.4286V39.2857H59.8571V35.8571Z" fill="black"/>
<path d="M63.2857 35.8571H59.8571V39.2857H63.2857L63.2857 35.8571Z" fill="black"/>
<path d="M66.7143 35.8571H63.2857L63.2857 39.2857H66.7143V35.8571Z" fill="black"/>
<path d="M80.4286 35.8571H77V39.2857H80.4286V35.8571Z" fill="#FF0000"/>
<path d="M87.2857 35.8571H83.8571V39.2857H87.2857V35.8571Z" fill="black"/>
<path d="M90.7143 35.8571H87.2857V39.2857H90.7143V35.8571Z" fill="black"/>
<path d="M94.1428 35.8571H90.7143V39.2857H94.1428V35.8571Z" fill="black"/>
<path d="M101 35.8571H97.5714V39.2857H101V35.8571Z" fill="#FF0000"/>
<path d="M32.4286 39.2857H29V42.7143H32.4286V39.2857Z" fill="black"/>
<path d="M39.2857 39.2857H35.8571V42.7143H39.2857V39.2857Z" fill="black"/>
<path d="M42.7143 39.2857H39.2857V42.7143H42.7143V39.2857Z" fill="black"/>
<path d="M46.1429 39.2857H42.7143V42.7143H46.1429V39.2857Z" fill="black"/>
<path d="M53 39.2857H49.5714V42.7143H53V39.2857Z" fill="black"/>
<path d="M59.8571 39.2857H56.4286V42.7143H59.8571V39.2857Z" fill="black"/>
<path d="M80.4286 39.2857H77V42.7143H80.4286V39.2857Z" fill="#FF0000"/>
<path d="M87.2857 39.2857H83.8571V42.7143H87.2857V39.2857Z" fill="black"/>
<path d="M90.7143 39.2857H87.2857V42.7143H90.7143V39.2857Z" fill="black"/>
<path d="M94.1428 39.2857H90.7143V42.7143H94.1428V39.2857Z" fill="black"/>
<path d="M101 39.2857H97.5714V42.7143H101V39.2857Z" fill="#FF0000"/>
<path d="M32.4286 42.7143H29V46.1429H32.4286V42.7143Z" fill="black"/>
<path d="M39.2857 42.7143H35.8571V46.1429H39.2857V42.7143Z" fill="black"/>
<path d="M42.7143 42.7143H39.2857V46.1429H42.7143V42.7143Z" fill="black"/>
<path d="M46.1429 42.7143H42.7143V46.1429H46.1429V42.7143Z" fill="black"/>
<path d="M53 42.7143H49.5714V46.1429H53V42.7143Z" fill="black"/>
<path d="M63.2857 42.7143H59.8571L59.8571 46.1429H63.2857V42.7143Z" fill="black"/>
<path d="M66.7143 42.7143H63.2857V46.1429H66.7143V42.7143Z" fill="black"/>
<path d="M70.1428 42.7143H66.7143V46.1429H70.1428V42.7143Z" fill="black"/>
<path d="M80.4286 42.7143H77V46.1429H80.4286V42.7143Z" fill="#FF0000"/>
<path d="M87.2857 42.7143H83.8571V46.1429H87.2857V42.7143Z" fill="black"/>
<path d="M90.7143 42.7143H87.2857V46.1429H90.7143V42.7143Z" fill="black"/>
<path d="M94.1428 42.7143H90.7143V46.1429H94.1428V42.7143Z" fill="black"/>
<path d="M101 42.7143H97.5714V46.1429H101V42.7143Z" fill="#FF0000"/>
<path d="M32.4286 46.1429H29V49.5714H32.4286V46.1429Z" fill="black"/>
<path d="M53 46.1429H49.5714V49.5714H53V46.1429Z" fill="black"/>
<path d="M59.8571 46.1429H56.4286V49.5714H59.8571L59.8571 46.1429Z" fill="black"/>
<path d="M63.2857 46.1429H59.8571L59.8571 49.5714H63.2857V46.1429Z" fill="black"/>
<path d="M66.7143 46.1429H63.2857V49.5714H66.7143V46.1429Z" fill="black"/>
<path d="M70.1428 46.1429H66.7143V49.5714H70.1428V46.1429Z" fill="black"/>
<path d="M73.5714 46.1429H70.1428V49.5714H73.5714V46.1429Z" fill="black"/>
<path d="M80.4286 46.1429H77V49.5714H80.4286V46.1429Z" fill="#FF0000"/>
<path d="M101 46.1429H97.5714V49.5714H101V46.1429Z" fill="#FF0000"/>
<path d="M32.4286 49.5714H29V53H32.4286V49.5714Z" fill="black"/>
<path d="M35.8571 49.5714H32.4286V53H35.8571V49.5714Z" fill="black"/>
<path d="M39.2857 49.5714H35.8571V53H39.2857V49.5714Z" fill="black"/>
<path d="M42.7143 49.5714H39.2857V53H42.7143V49.5714Z" fill="black"/>
<path d="M46.1429 49.5714H42.7143V53H46.1429V49.5714Z" fill="black"/>
<path d="M49.5714 49.5714H46.1429V53H49.5714V49.5714Z" fill="black"/>
<path d="M53 49.5714H49.5714V53H53V49.5714Z" fill="black"/>
<path d="M59.8571 49.5714H56.4286V53H59.8571V49.5714Z" fill="black"/>
<path d="M66.7143 49.5714H63.2857L63.2857 53H66.7143V49.5714Z" fill="black"/>
<path d="M73.5714 49.5714H70.1428V53H73.5714V49.5714Z" fill="black"/>
<path d="M80.4286 49.5714H77V53H80.4286V49.5714Z" fill="#FF0000"/>
<path d="M83.8571 49.5714H80.4286V53H83.8571V49.5714Z" fill="#FF0000"/>
<path d="M87.2857 49.5714H83.8571V53H87.2857V49.5714Z" fill="#FF0000"/>
<path d="M90.7143 49.5714H87.2857V53H90.7143V49.5714Z" fill="#FF0000"/>
<path d="M94.1428 49.5714H90.7143V53H94.1428V49.5714Z" fill="#FF0000"/>
<path d="M97.5714 49.5714H94.1428V53H97.5714V49.5714Z" fill="#FF0000"/>
<path d="M101 49.5714H97.5714V53H101V49.5714Z" fill="#FF0000"/>
<path d="M59.8571 53H56.4286V56.4286H59.8571V53Z" fill="black"/>
<path d="M70.1428 53H66.7143L66.7143 56.4286H70.1428V53Z" fill="black"/>
<path d="M73.5714 53H70.1428V56.4286H73.5714V53Z" fill="black"/>
<path d="M32.4286 56.4286H29V59.8571H32.4286V56.4286Z" fill="black"/>
<path d="M35.8571 56.4286H32.4286V59.8571H35.8571V56.4286Z" fill="black"/>
<path d="M42.7143 56.4286H39.2857V59.8571H42.7143V56.4286Z" fill="black"/>
<path d="M53 56.4286H49.5714V59.8571H53V56.4286Z" fill="black"/>
<path d="M56.4286 56.4286L53 56.4286V59.8571H56.4286L56.4286 56.4286Z" fill="black"/>
<path d="M63.2857 56.4286L59.8571 56.4286L59.8571 59.8571H63.2857V56.4286Z" fill="black"/>
<path d="M66.7143 56.4286L63.2857 56.4286V59.8571H66.7143L66.7143 56.4286Z" fill="black"/>
<path d="M73.5714 56.4286H70.1428V59.8571H73.5714V56.4286Z" fill="black"/>
<path d="M77 56.4286L73.5714 56.4286V59.8571H77V56.4286Z" fill="black"/>
<path d="M80.4286 56.4286H77V59.8571H80.4286V56.4286Z" fill="black"/>
<path d="M83.8571 56.4286H80.4286V59.8571H83.8571V56.4286Z" fill="black"/>
<path d="M90.7143 56.4286H87.2857V59.8571H90.7143V56.4286Z" fill="black"/>
<path d="M94.1428 56.4286H90.7143V59.8571H94.1428V56.4286Z" fill="black"/>
<path d="M101 56.4286H97.5714V59.8571H101V56.4286Z" fill="black"/>
<path d="M39.2857 59.8571H35.8571V63.2857H39.2857V59.8571Z" fill="black"/>
<path d="M42.7143 59.8571H39.2857V63.2857H42.7143V59.8571Z" fill="black"/>
<path d="M46.1429 59.8571L42.7143 59.8571V63.2857H46.1429V59.8571Z" fill="black"/>
<path d="M56.4286 59.8571H53V63.2857H56.4286V59.8571Z" fill="black"/>
<path d="M63.2857 59.8571H59.8571V63.2857H63.2857V59.8571Z" fill="black"/>
<path d="M70.1428 59.8571H66.7143L66.7143 63.2857H70.1428V59.8571Z" fill="black"/>
<path d="M83.8571 59.8571H80.4286V63.2857H83.8571V59.8571Z" fill="black"/>
<path d="M97.5714 59.8571H94.1428V63.2857H97.5714V59.8571Z" fill="black"/>
<path d="M101 59.8571H97.5714V63.2857H101V59.8571Z" fill="black"/>
<path d="M39.2857 63.2857H35.8571V66.7143H39.2857V63.2857Z" fill="black"/>
<path d="M53 63.2857H49.5714V66.7143H53V63.2857Z" fill="black"/>
<path d="M80.4286 63.2857H77V66.7143H80.4286V63.2857Z" fill="black"/>
<path d="M83.8571 63.2857H80.4286V66.7143H83.8571V63.2857Z" fill="black"/>
<path d="M87.2857 63.2857H83.8571V66.7143H87.2857V63.2857Z" fill="black"/>
<path d="M94.1428 63.2857H90.7143V66.7143H94.1428V63.2857Z" fill="black"/>
<path d="M97.5714 63.2857H94.1428V66.7143H97.5714V63.2857Z" fill="black"/>
<path d="M32.4286 66.7143H29V70.1429H32.4286V66.7143Z" fill="black"/>
<path d="M35.8571 66.7143L32.4286 66.7143V70.1429H35.8571V66.7143Z" fill="black"/>
<path d="M39.2857 66.7143H35.8571V70.1429H39.2857V66.7143Z" fill="black"/>
<path d="M42.7143 66.7143L39.2857 66.7143V70.1429H42.7143V66.7143Z" fill="black"/>
<path d="M46.1429 66.7143H42.7143V70.1429H46.1429V66.7143Z" fill="black"/>
<path d="M49.5714 66.7143L46.1429 66.7143V70.1429H49.5714V66.7143Z" fill="black"/>
<path d="M56.4286 66.7143L53 66.7143V70.1429H56.4286V66.7143Z" fill="black"/>
<path d="M59.8571 66.7143H56.4286V70.1429H59.8571V66.7143Z" fill="black"/>
<path d="M63.2857 66.7143H59.8571V70.1429H63.2857V66.7143Z" fill="black"/>
<path d="M66.7143 66.7143H63.2857V70.1429H66.7143V66.7143Z" fill="black"/>
<path d="M70.1428 66.7143H66.7143V70.1429H70.1428V66.7143Z" fill="black"/>
<path d="M77 66.7143L73.5714 66.7143V70.1429H77V66.7143Z" fill="black"/>
<path d="M80.4286 66.7143H77V70.1429H80.4286V66.7143Z" fill="black"/>
<path d="M90.7143 66.7143H87.2857V70.1429H90.7143V66.7143Z" fill="black"/>
<path d="M35.8571 70.1429H32.4286V73.5714H35.8571V70.1429Z" fill="black"/>
<path d="M39.2857 70.1429H35.8571V73.5714H39.2857V70.1429Z" fill="black"/>
<path d="M49.5714 70.1429H46.1429V73.5714H49.5714V70.1429Z" fill="black"/>
<path d="M53 70.1429H49.5714V73.5714H53V70.1429Z" fill="black"/>
<path d="M56.4286 70.1429H53V73.5714H56.4286V70.1429Z" fill="black"/>
<path d="M59.8571 70.1429H56.4286V73.5714H59.8571V70.1429Z" fill="black"/>
<path d="M63.2857 70.1429H59.8571V73.5714H63.2857V70.1429Z" fill="black"/>
<path d="M73.5714 70.1429H70.1428V73.5714H73.5714V70.1429Z" fill="black"/>
<path d="M80.4286 70.1429H77V73.5714H80.4286V70.1429Z" fill="black"/>
<path d="M87.2857 70.1429H83.8571V73.5714H87.2857V70.1429Z" fill="black"/>
<path d="M94.1428 70.1429H90.7143V73.5714H94.1428V70.1429Z" fill="black"/>
<path d="M63.2857 73.5714H59.8571L59.8571 77H63.2857V73.5714Z" fill="black"/>
<path d="M87.2857 73.5714H83.8571V77H87.2857V73.5714Z" fill="black"/>
<path d="M97.5714 73.5714H94.1428V77H97.5714V73.5714Z" fill="black"/>
<path d="M101 73.5714H97.5714V77H101V73.5714Z" fill="black"/>
<path d="M32.4286 77H29V80.4286H32.4286V77Z" fill="black"/>
<path d="M35.8571 77H32.4286V80.4286H35.8571V77Z" fill="black"/>
<path d="M39.2857 77H35.8571V80.4286H39.2857V77Z" fill="black"/>
<path d="M42.7143 77H39.2857V80.4286H42.7143V77Z" fill="black"/>
<path d="M46.1429 77H42.7143V80.4286H46.1429V77Z" fill="black"/>
<path d="M49.5714 77H46.1429V80.4286H49.5714V77Z" fill="black"/>
<path d="M53 77H49.5714V80.4286H53V77Z" fill="black"/>
<path d="M59.8571 77H56.4286V80.4286H59.8571L59.8571 77Z" fill="black"/>
<path d="M63.2857 77H59.8571L59.8571 80.4286H63.2857V77Z" fill="black"/>
<path d="M70.1428 77H66.7143V80.4286H70.1428V77Z" fill="black"/>
<path d="M77 77H73.5714V80.4286H77V77Z" fill="black"/>
<path d="M87.2857 77H83.8571V80.4286H87.2857V77Z" fill="black"/>
<path d="M90.7143 77H87.2857V80.4286H90.7143V77Z" fill="black"/>
<path d="M94.1428 77H90.7143V80.4286H94.1428V77Z" fill="black"/>
<path d="M32.4286 80.4286H29V83.8571H32.4286V80.4286Z" fill="black"/>
<path d="M53 80.4286H49.5714V83.8571H53V80.4286Z" fill="black"/>
<path d="M63.2857 80.4286H59.8571L59.8571 83.8571H63.2857V80.4286Z" fill="black"/>
<path d="M70.1428 80.4286H66.7143V83.8571H70.1428V80.4286Z" fill="black"/>
<path d="M80.4286 80.4286H77V83.8571H80.4286V80.4286Z" fill="black"/>
<path d="M83.8571 80.4286H80.4286V83.8571H83.8571V80.4286Z" fill="black"/>
<path d="M87.2857 80.4286H83.8571V83.8571H87.2857V80.4286Z" fill="black"/>
<path d="M97.5714 80.4286H94.1428V83.8571H97.5714V80.4286Z" fill="black"/>
<path d="M101 80.4286H97.5714V83.8571H101V80.4286Z" fill="black"/>
<path d="M32.4286 83.8571H29V87.2857H32.4286V83.8571Z" fill="black"/>
<path d="M39.2857 83.8571H35.8571V87.2857H39.2857V83.8571Z" fill="black"/>
<path d="M42.7143 83.8571H39.2857V87.2857H42.7143V83.8571Z" fill="black"/>
<path d="M46.1429 83.8571H42.7143V87.2857H46.1429V83.8571Z" fill="black"/>
<path d="M53 83.8571H49.5714V87.2857H53V83.8571Z" fill="black"/>
<path d="M70.1428 83.8571H66.7143V87.2857H70.1428V83.8571Z" fill="black"/>
<path d="M77 83.8571H73.5714V87.2857H77V83.8571Z" fill="black"/>
<path d="M80.4286 83.8571H77V87.2857H80.4286V83.8571Z" fill="black"/>
<path d="M97.5714 83.8571H94.1428V87.2857H97.5714V83.8571Z" fill="black"/>
<path d="M32.4286 87.2857H29V90.7143H32.4286V87.2857Z" fill="black"/>
<path d="M39.2857 87.2857H35.8571V90.7143H39.2857V87.2857Z" fill="black"/>
<path d="M42.7143 87.2857H39.2857V90.7143H42.7143V87.2857Z" fill="black"/>
<path d="M46.1429 87.2857H42.7143V90.7143H46.1429V87.2857Z" fill="black"/>
<path d="M53 87.2857H49.5714V90.7143H53V87.2857Z" fill="black"/>
<path d="M59.8571 87.2857H56.4286V90.7143H59.8571V87.2857Z" fill="black"/>
<path d="M66.7143 87.2857H63.2857V90.7143H66.7143L66.7143 87.2857Z" fill="black"/>
<path d="M77 87.2857H73.5714V90.7143H77V87.2857Z" fill="black"/>
<path d="M83.8571 87.2857H80.4286V90.7143H83.8571V87.2857Z" fill="black"/>
<path d="M87.2857 87.2857H83.8571V90.7143H87.2857V87.2857Z" fill="black"/>
<path d="M94.1428 87.2857H90.7143V90.7143H94.1428V87.2857Z" fill="black"/>
<path d="M32.4286 90.7143H29V94.1429H32.4286V90.7143Z" fill="black"/>
<path d="M39.2857 90.7143H35.8571V94.1429H39.2857V90.7143Z" fill="black"/>
<path d="M42.7143 90.7143H39.2857V94.1429H42.7143V90.7143Z" fill="black"/>
<path d="M46.1429 90.7143H42.7143V94.1429H46.1429V90.7143Z" fill="black"/>
<path d="M53 90.7143H49.5714V94.1429H53V90.7143Z" fill="black"/>
<path d="M63.2857 90.7143H59.8571L59.8571 94.1429H63.2857L63.2857 90.7143Z" fill="black"/>
<path d="M66.7143 90.7143H63.2857L63.2857 94.1429H66.7143V90.7143Z" fill="black"/>
<path d="M83.8571 90.7143H80.4286V94.1429H83.8571V90.7143Z" fill="black"/>
<path d="M87.2857 90.7143H83.8571V94.1429H87.2857V90.7143Z" fill="black"/>
<path d="M101 90.7143H97.5714V94.1429H101V90.7143Z" fill="black"/>
<path d="M32.4286 94.1429H29V97.5714H32.4286V94.1429Z" fill="black"/>
<path d="M53 94.1429H49.5714V97.5714H53V94.1429Z" fill="black"/>
<path d="M59.8571 94.1429H56.4286V97.5714H59.8571L59.8571 94.1429Z" fill="black"/>
<path d="M63.2857 94.1429H59.8571L59.8571 97.5714H63.2857V94.1429Z" fill="black"/>
<path d="M66.7143 94.1429H63.2857V97.5714H66.7143V94.1429Z" fill="black"/>
<path d="M77 94.1429H73.5714V97.5714H77V94.1429Z" fill="black"/>
<path d="M83.8571 94.1429H80.4286V97.5714H83.8571V94.1429Z" fill="black"/>
<path d="M87.2857 94.1429H83.8571V97.5714H87.2857V94.1429Z" fill="black"/>
<path d="M90.7143 94.1429H87.2857V97.5714H90.7143V94.1429Z" fill="black"/>
<path d="M32.4286 97.5714H29V101H32.4286V97.5714Z" fill="black"/>
<path d="M35.8571 97.5714H32.4286V101H35.8571V97.5714Z" fill="black"/>
<path d="M39.2857 97.5714H35.8571V101H39.2857V97.5714Z" fill="black"/>
<path d="M42.7143 97.5714H39.2857V101H42.7143V97.5714Z" fill="black"/>
<path d="M46.1429 97.5714H42.7143V101H46.1429V97.5714Z" fill="black"/>
<path d="M49.5714 97.5714H46.1429V101H49.5714V97.5714Z" fill="black"/>
<path d="M53 97.5714H49.5714V101H53V97.5714Z" fill="black"/>
<path d="M59.8571 97.5714H56.4286V101H59.8571V97.5714Z" fill="black"/>
<path d="M63.2857 97.5714H59.8571V101H63.2857V97.5714Z" fill="black"/>
<path d="M66.7143 97.5714H63.2857V101H66.7143V97.5714Z" fill="black"/>
<path d="M77 97.5714H73.5714V101H77V97.5714Z" fill="black"/>
<path d="M83.8571 97.5714H80.4286V101H83.8571V97.5714Z" fill="black"/>
<path d="M87.2857 97.5714H83.8571V101H87.2857V97.5714Z" fill="black"/>
<path d="M97.5714 97.5714H94.1428V101H97.5714V97.5714Z" fill="black"/>
<rect x="101" y="63.6667" width="37.3333" height="36" transform="rotate(90 101 63.6667)" fill="white"/>
<path d="M77.6579 88.5503C75.7538 88.5503 74.2443 87.9477 73.1295 86.7425C72.0208 85.5374 71.4664 83.8954 71.4664 81.8165C71.4664 79.7436 72.0208 78.1016 73.1295 76.8904C74.2443 75.6793 75.7538 75.0737 77.6579 75.0737C79.556 75.0737 81.0594 75.6793 82.1682 76.8904C83.2829 78.1016 83.8403 79.7436 83.8403 81.8165C83.8403 83.0036 83.6505 84.0581 83.2709 84.98C82.8973 85.902 82.358 86.6431 81.653 87.2035L83.3341 89.653H80.9841L79.9537 88.1797C79.2728 88.4267 78.5075 88.5503 77.6579 88.5503ZM77.6579 86.5798C78.0194 86.5798 78.384 86.5256 78.7516 86.4172L77.2512 84.2479H79.4837L80.252 85.2964C81.0594 84.4769 81.4632 83.3169 81.4632 81.8165C81.4632 80.3583 81.1197 79.1983 80.4327 78.3366C79.7458 77.4749 78.8209 77.0441 77.6579 77.0441C76.4949 77.0441 75.57 77.4749 74.883 78.3366C74.1961 79.1983 73.8526 80.3583 73.8526 81.8165C73.8526 83.2747 74.1961 84.4347 74.883 85.2964C75.57 86.152 76.4949 86.5798 77.6579 86.5798ZM88.0342 77.1797V81.6357H90.6645C91.4056 81.6357 91.9811 81.4399 92.3909 81.0482C92.8006 80.6565 93.0055 80.1082 93.0055 79.4032C93.0055 78.7162 92.7916 78.1739 92.3637 77.7762C91.9359 77.3785 91.3544 77.1797 90.6193 77.1797H88.0342ZM88.0342 83.4254V88.3333H85.7023V75.2906H90.8814C92.2854 75.2906 93.3881 75.6552 94.1895 76.3843C94.991 77.1074 95.3917 78.0956 95.3917 79.3489C95.3917 80.2227 95.1748 80.994 94.7409 81.6628C94.307 82.3257 93.7045 82.7957 92.9332 83.0729L95.7803 88.3333H93.123L90.556 83.4254H88.0342Z" fill="black"/>
<defs>
<filter id="filter0_f_59_330" x="0" y="0" width="130" height="130" filterUnits="userSpaceOnUse" color-interpolation-filters="sRGB">
<feFlood flood-opacity="0" result="BackgroundImageFix"/>
<feBlend mode="normal" in="SourceGraphic" in2="BackgroundImageFix" result="shape"/>
<feGaussianBlur stdDeviation="5" result="effect1_foregroundBlur_59_330"/>
</filter>
</defs>
</svg>
